<?xml version="1.0" encoding="UTF-8" standalone="no"?>
<svg
   version="1.1"
   width="1878.7732"
   height="1661.8427"
   viewBox="0 0 3579.2814 3166.0035"
   id="svg1"
   sodipodi:docname="vectorized.svg"
   xml:space="preserve"
   inkscape:export-filename="armadillo.svg"
   inkscape:export-xdpi="96"
   inkscape:export-ydpi="96"
   xmlns:inkscape="http://www.inkscape.org/namespaces/inkscape"
   xmlns:sodipodi="http://sodipodi.sourceforge.net/DTD/sodipodi-0.dtd"
   xmlns="http://www.w3.org/2000/svg"
   xmlns:svg="http://www.w3.org/2000/svg"><defs
     id="defs1" /><sodipodi:namedview
     id="namedview1"
     pagecolor="#ffffff"
     bordercolor="#000000"
     borderopacity="0.25"
     inkscape:showpageshadow="2"
     inkscape:pageopacity="0.0"
     inkscape:pagecheckerboard="0"
     inkscape:deskcolor="#d1d1d1"
     showgrid="false"><inkscape:page
       x="0"
       y="0"
       width="3579.2815"
       height="3166.0034"
       id="page2"
       margin="0"
       bleed="0" /></sodipodi:namedview><path
     id="path25"
     style="display:inline;fill:#000000;stroke:none;stroke-width:0;stroke-dasharray:none"
     d="m 1340.6285,0.00510569 c -4.02,0.12 -33.24,15.06814031 -36,17.99814031 -2.68,2.84 -11.9091,33.62372 -14.9991,36.00372 -2.3,1.78 -26.2209,-1.15186 -29.0009,-2.00186 -7.12,-2.18 -61.7609,-26.24 -69.0009,-28 -7.72,-1.88 -71.0891,-8.71 -78.9991,-8 -3.66,0.33 -29.29,15.52814 -32,17.99814 -3.12,2.84 -20.9409,32.86186 -25.0009,34.00186 -9.92,2.79 -92.80904,0.46186 -102.99904,2.00186 -2.24,0.34 -14.96,13.99 -16,16 -1.73,3.34 -7.3891,34.916274 -10.9991,35.996274 -10.44,3.13 -98.2009,-1.48 -109.0009,0 -17.06,2.34 -151.56,32.86186 -168,38.00186 -4.9,1.53 -38.37907,25.78 -42.99907,28 -5.84,2.81 -55.25093,18.98814 -61.00093,21.99814 -5.07,2.64996 -41.86186,30.06186 -46.00186,34.00186 -4.32,4.11 -34.92814,40.8781 -37.99814,45.9981 -4.19,6.98 -32.10186,66.0819 -34.00186,74.0019 -2.36,9.85 -8.4,90.8809 -8,101.0009 0.21,5.38 11.66186,47.15 14.00186,52 3.13,6.5 35.2,54.61 40,60 6.68,7.5 65.89814,62.04 73.99814,68 9.39,6.91 89.50372,54.92 100.00372,60 10.69,5.17 100.21907,37.0382 110.99907,41.9982 1.8,0.83 12.78721,13.029 12.99721,14.999 0.35,3.38 -8.26,29.611 -8,33.001 0.36,4.79 17.36186,42.5618 14.00186,46.0018 -7.49,7.66 -88.81907,37.6472 -98.99907,40.9972 -11.47,3.77 -105.75093,25.6219 -117.00093,30.0019 -4.44,1.73 -32.91093,27.5719 -37.00093,30.0019 -3.4,2.02 -33.50721,12.1381 -36.99721,13.9981 -2.58,1.37 -20.10279,17.6819 -23.00279,18.0019 -8.67,0.95 -78.36907,-7.2519 -86.99907,-6.0019 -8.36,1.21 -70.68907,28.46191 -78.99907,30.00191 -8.16,1.51 -74.75907,-1.01 -82.99907,0 -5.02,0.61 -43.72,13.28999 -48,15.99999 -5.74,3.63 -45.73186,40.7181 -50.00186,45.9981 -2.65,3.27 -16.841863,33.9581 -18.001863,37.9981 -0.69,2.4 1.540003,23.031 0,25.001 -2.57,3.28 -32.946278,18.1609 -35.996278,21.0009 -4.48,4.18 -34.66186,42.87 -38.00186,48 -2.69,4.12 -21.1518601,39.15 -22.0018601,44 -1.61,9.16 -3.68814,83.8509 -1.99813999,93.0009 1.00999999,5.46 24.69000009,43.54 28.00000009,48 1.94,2.61 21.12,20.4682 24,21.9982 2.24,1.19 22.73093,5.12 25.00093,4 4.83,-2.38 40.000001,-36 40.000001,-36 0,0 3.99721,34.3018 4.99721,38.0018 0.91,3.37 11.92186,29.2 14.00186,32 3.8,5.11 39,42.0582 44,45.9982 1.35,1.06 15.32093,2.3118 17.00093,2.0018 1.76,-0.32 14.65,-6.83 16,-8 1.72,-1.49 13.47814,-15.7818 13.99814,-18.0018 1.15,-4.97 2.64186,-45.9391 2.00186,-50.9991 -0.77,-6.06 -15.63,-52.8991 -16,-58.9991 -0.16,-2.64 10.99907,-24 10.99907,-24 0,0 2.77,43.34 4,48 1.6,6.07 20.14,53.0482 24,57.9982 2.87,3.68 35.51,22.73 40,24 7.07,2 65.68093,8.6 73.00093,8 2.87,-0.24 22.59,-13.48 24,-16 1.32,-2.36 0.76,-24.4091 0,-26.9991 -2.28,-7.75 -28.10186,-67.1491 -30.00186,-74.9991 -1.34,-5.54 -2.57814,-51.3309 -1.99814,-57.0009 0.15,-1.41 7.65093,-10.5591 9.00093,-10.9991 8.49,-2.74 78.47907,-17.34 86.99907,-20 30.01,-9.35 268.54814,-89 297.99814,-100 11.31,-4.23 97.53093,-48.23 109.00093,-52 2.26,-0.74 21.99814,8.9972 21.99814,8.9972 0,0 -31.16628,75.3528 -35.99628,83.0028 -11.65,18.48 -115.63,159.001 -128,177.001 -3.04,4.43 -22.91186,42.609 -26.00186,46.999 -2.16,3.07 -23.90186,23.8991 -26.00186,26.9991 -11.54,17.05 -99.97814,156.0219 -109.99814,174.0019 -2.65,4.75 -15.28,46.6062 -16,51.9962 -0.89,6.64 -1.11,60.3928 0,67.0028 0.73,4.33 15.61186,36.32 18.00186,40 2.27,3.51 25.70628,27.4991 27.99628,30.9991 1.2,1.83 7.67186,19.5909 6.00186,21.0009 -7.27,6.16 -76.26,39.451 -84,45.001 -6.21,4.45 -49.21814,48.0481 -53.99814,53.9981 -3.48,4.33 -25.68372,42.95 -28.00372,48 -2.11,4.6 -14.79,43.09 -16,48 -1.8,7.31 -13.10814,66.5219 -13.99814,74.0019 -0.51,4.27 -0.64,38.749 0,42.999 1.77,11.71 19.54,105.02 24,116 3.71,9.12 51.28,72.361 56,81.001 4.94,9.05 34.83,86.079 40,94.999 4.32,7.44 49.74814,59.5191 53.99814,66.9991 4.26,7.51 29.27186,72.3909 30.00186,81.0009 0.28,3.25 -18.46093,22.9472 -21.00093,24.9972 -11.72,9.49 -109.39093,80.3819 -121.00093,90.0019 -5.34,4.42 -44,44.3419 -48,50.0019 -5.27,7.45 -40.44628,71.59 -43.99628,80 -2.49,5.9 -14.89,55.6881 -16,61.9981 -0.5,2.86 -0.81,26.2209 0,29.0009 0.85,2.93 13.75,23.9382 16,25.9982 2.71,2.48 28.33,17.9518 32,18.0018 12.01,0.16 107.35907,-13.04 118.99907,-16 6.68,-1.7 55.53814,-32.3818 61.99814,-30.0018 7.45,2.75 35.71093,62.08 41.00093,68 5.79,6.48 59.94,50.7818 68,54.0018 31.36,12.54 289.4181,93.0782 321.99804,101.9982 6.28,1.72 58.941,6.38 65.001,4 0.9691,-0.3822 2.576,-2.4351 4.5172,-5.4214 0.4176,-0.6425 0.853,-1.329 1.2986,-2.0503 v 0 c 0.3006,-0.4866 0.6043,-0.9901 0.9153,-1.5069 v 0 c -0.311,0.5168 -0.6147,1.0203 -0.9153,1.5069 h 2.0056 14.039 c 2.3399,0 5.3669,-1.6546 7.0214,0 0.8273,0.8274 -0.8272,2.6815 0,3.5089 1.6546,1.6544 4.9248,-1.0465 7.0177,0 12.8433,6.4216 3.3907,7.0214 21.0605,7.0214 h 77.2167 c 3.9391,0 14.5701,0.7612 24.6698,1.0976 -0.03,1.9083 0.015,3.3454 0.1525,3.8438 0.34,1.23 8.7219,7.95 10.0019,8 4.14,0.16 37.1109,-4.5782 41.0009,-5.9982 3.96,-1.44 33.09,-18.9418 36,-22.0018 5.05,-5.31 40.2482,-52.89 41.9982,-60 2.65,-10.78 1.45,-99.9991 0,-110.9991 -1.97,-14.96 -32.9882,-131.9491 -33.9982,-146.9991 -1.02,-15.13 11.7182,-136.0128 13.9982,-151.0028 1.33,-8.78 19.3018,-77.5381 22.0018,-85.9981 1.72,-5.38 18.6182,-47.47 21.9982,-52 1.9,-2.55 26.09,-12.4591 28,-14.9991 1.5,-2.01 0.9218,-22.7309 2.0018,-25.0009 0.97,-2.05 15.0472,-13.8391 16.9972,-14.9991 12.39,-7.36 112.6619,-64.5518 126.0019,-70.0018 9.88,-4.04 93.36,-23.19 104,-24 13.28,-1.01 119.6909,6.1418 133.0009,6.0018 5.85,-0.06 52.4582,-6.1 57.9982,-8 11.51,-3.95 98.9728,-48.1218 111.0028,-50.0018 4.05,-0.63 26.0281,26.96 29.9981,28 7.45,1.95 69.3409,0.79 77.0009,0 21.5,-2.22 192.7182,-26.2582 213.9982,-29.9982 4.98,-0.87 43.53,-13.62 48,-16 14.02,-7.47 123.27,-72.5118 136,-82.0018 8.62,-6.42 68.8,-68.02 76,-76 5.82,-6.45 49.1018,-60.83 54.0018,-68 3.33,-4.88 26.2,-46.37 28,-52 1.28,-4.01 1.9982,-37.7982 1.9982,-41.9982 0,-5.7 -1.1282,-51.3609 -1.9982,-57.0009 -0.94,-6.04 -15.18,-52.9391 -16,-58.9991 -0.79,-5.85 -1.91,-53.419 0,-58.999 3.45,-10.08 47.44,-83.371 52,-93.001 2.67,-5.63 16.82,-53.649 20,-58.999 1.45,-2.43 22.2,-12.8228 24,-15.0028 2.17,-2.62 11.8782,-28.3391 13.9982,-30.9991 4.37,-5.47 45.6418,-43.5209 50.0018,-49.0009 2.34,-2.94 14.98,-30.3782 16,-33.9982 2,-7.06 13.7682,-64.67 13.9982,-72 0.58,-18.5 -6.6582,-166.5009 -5.9982,-185.0009 0.06,-1.7 11.3072,-10.7691 12.9972,-10.9991 2.35,-0.33 20.6528,6.3382 23.0028,5.9982 2.22,-0.32 16.8291,-11.43 18.9991,-12 6.36,-1.67 58.6709,-8.2182 65.0009,-9.9982 8.65,-2.44 75.79,-28.33 84,-32 10.62,-4.74 93.96,-46.14 104,-52 13.99,-8.16 123.8,-77.35 136,-88 13.24,-11.56 105.07,-118.24 116,-132 9.9,-12.47 84.91,-115.7418 92,-130.0018 12.84,-25.8 96.7782,-240.7 105.9982,-268 3.42,-10.13 20.83,-94.341 20,-105.001 -0.24,-3.06 -29.001,-9.9981 -29.001,-9.9981 0,0 5.3685,15.872 8.2419,25.3693 -4.0501,-4.342 -10.4298,-8.537 -14.5228,-9.9014 -2.2199,-0.7399 -4.9247,1.0465 -7.0177,0 -1.0463,-0.5232 0.8274,-2.6815 0,-3.5088 -1.6544,-1.6546 -4.9286,1.0464 -7.0214,0 -5.3541,-2.6771 -8.8045,-7.913 -14.039,-10.5303 -2.1192,-1.0596 -8.9042,1.6225 -10.5265,0 -0.8274,-0.8273 1.0462,-2.9856 0,-3.5088 -2.093,-1.0465 -4.9285,1.0464 -7.0214,0 -1.0465,-0.5232 0.8272,-2.6815 0,-3.5088 -2.0398,-2.0398 -11.0894,-2.0378 -14.0391,-3.5126 -6.2823,-3.1412 -12.0082,-9.8815 -17.5516,-14.0391 -2.9598,-2.2198 -7.9104,-0.8927 -10.5265,-3.5088 -1.8499,-1.8499 -1.6628,-5.1716 -3.5126,-7.0214 -2.6634,-2.6633 -13.8706,-3.3406 -17.5479,-7.0177 -1.8497,-1.8499 -1.4158,-5.4517 -3.5088,-7.0214 -2.9598,-2.2198 -7.4518,-1.4566 -10.5303,-3.5088 -2.1766,-1.4511 -1.332,-5.5703 -3.5088,-7.0214 -3.0783,-2.0522 -7.9142,-0.8927 -10.5303,-3.5088 -6.674,-6.674 -11.845,-19.9617 -21.0604,-24.5693 -1.0465,-0.5233 -2.6817,0.8272 -3.5089,0 -0.8274,-0.8273 0.8272,-2.6816 0,-3.5089 -3.6997,-3.6997 -9.6856,-4.1191 -14.039,-7.0214 -5.3848,-3.5898 -8.1718,-9.3219 -10.5303,-14.039 -1.2995,-2.5989 -21.0833,-17.5708 -24.5693,-21.0568 -1.5001,-1.5002 -3.7027,-3.1928 -6.1321,-4.96 10.4095,2.248 18.0056,3.9033 18.0056,3.9033 0,0 -26.1818,-25.6791 -30.0018,-26.9991 -2.0521,-0.709 -8.4369,-1.8729 -16.867,-3.2223 -0.019,-0.1079 -0.055,-0.214 -0.1042,-0.3126 -3.2488,-6.4977 -10.9315,-11.3328 -14.0391,-17.5479 -2.4183,-4.837 -8.232,-4.7234 -10.5302,-7.0214 -0.4261,-0.4263 -12.7865,-19.8042 -14.0391,-21.0567 -0.8272,-0.8273 -3.0981,1.0954 -3.5088,0 -2.213,-5.9014 -2.6883,-12.39557 -3.9554,-18.59352 0,-0.007 0,-0.012 0,-0.0186 3.7028,-3.2341 6.8036,-6.13264 7.0214,-7.22605 0.47,-2.37 -12,-21.00093 -12,-21.00093 0,0 -3.8872,10.84818 -8.8335,24.53953 h 0.026 c -4.7586,2.5283 -9.4659,5.13479 -13.8419,8.26047 -4.145,2.96078 1.8041,17.4253 3.3265,20.6772 -4.5564,12.4304 -8.4454,22.8441 -9.6483,25.5219 -0.99,2.21 -12.9828,17.669 -15.0028,18.999 -3.74,2.47 -37.9872,14.6819 -40.9972,18.0019 -1.68,1.86 1.9981,25.0009 1.9981,25.0009 l 21.9983,-5.0009 c 0,0 -15.6519,44.3409 -18.0019,49.0009 -6.08,12.08 -58.8319,106.5282 -66.0019,117.9982 -6.85,10.96 -66.0981,95.7718 -73.9981,106.0018 -5.02,6.5 -48.9291,55.461 -54.9991,61.001 -5.49,5.02 -53.74,39.9662 -60,43.9962 -5.57,3.59 -51.5618,30.46 -58.0018,32 -5.75,1.38 -53.1591,-4.9562 -58.9991,-3.9962 -1.3807,0.2235 -6.6783,6.2066 -10.3553,10.8465 -0.044,0.055 -0.087,0.1091 -0.1303,0.1637 -0.3518,0.4455 -0.6857,0.8788 -1.0009,1.2912 -2.9357,0.3381 -6.2063,0.7099 -9.8382,1.1162 v 0 c -4.9627,-38.5445 -11.6725,-103.1168 -13.6744,-113.4214 -3.5,-18 -38.25,-160.5881 -44,-177.9981 -1.92,-5.8 -27.38,-48.01 -32,-52 -5.38,-4.65 -60,-25.1191 -64,-30.9991 -6.26,-9.18 -25.6319,-96.7828 -30.0019,-107.0028 -1.95,-4.57 -28.22,-34.7781 -32,-37.9981 -3.13,-2.67 -32.02,-18.94 -36,-20 -7.5,-1.99 -69.2409,-10.18814 -77.0009,-9.99814 -8.51,0.21 -75.8763,16.56814 -83.9963,13.99814 -11.1,-3.51 -83.1109,-63.84814 -93.0009,-69.99814 -9.49,-5.9 -89.52,-46.101854 -100,-50.001854 -17.02,-6.34 -156.3619,-47.66 -174.0019,-52 -6.84,-1.68 -62.9581,-7.81 -69.9981,-8 -23.29,-0.61 -209.7609,-1.66 -233.0009,0 -16.2,1.15 -143.76,28.13 -160,28 -9.96,-0.08 -85.2991,-27.72814 -94.9991,-29.99814 -9.16,-2.14 -83.6009,-14.29186031 -93.0009,-14.00186031 z M 1620.3197,63.197666 v 0 c -1.6752,1.6301 -5.4927,12.66462 -4.6958,13.80837 v 0 c -0.7968,-1.14375 3.0207,-12.17827 4.6959,-13.80837 z m -159.6949,67.806504 v 0 c 0,0 4.6624,9.64832 5.8902,10.90605 v 0 c -1.2278,-1.25773 -5.8902,-10.90605 -5.8902,-10.90605 z m 33.0009,22.99907 v 0 c 3.14,3.14 19.6491,35.09186 22.9991,38.00186 v 0 c -3.35,-2.91 -19.8591,-34.86186 -22.9991,-38.00186 z m -576.21574,6.46698 c 45.08,0.7825 89.39944,3.40895 96.21944,10.53395 15.52,16.22 25.9982,222.99903 25.9982,222.99903 0,0 -9.8282,-1.969 -9.9982,-2.999 -3.33,-20.17 -20.59,-182.8391 -24,-202.9991 -0.2,-1.15 -9.84275,-4.15 -11.00274,-4 -0.71,0.1 -4.0162,5.28186 -3.9962,6.00186 0.38,13.32 6.63999,119.74724 7.99999,132.99724 0.85,8.28 13.99805,82.0018 13.99805,82.0018 0,0 -7.47,1.611 -8,1.001 -1.67,-1.93 -10.41904,-20.5228 -10.99904,-23.0028 -2.34,-10.09 -16.5718,-91.7382 -18.0018,-101.9982 -1.18,-8.46 -6.04,-76.6909 -8,-85.0009 -0.31,-1.32 -13.001,-4 -13.001,-4 l -5.9981,20 c 0,0 -3.6609,-25.49 -5.0009,-28 -0.53,-0.99 -10.9991,-1.99814 -10.9991,-1.99814 0,0 -4.33,80.09724 -4,88.99724 0.08,2.06 7.69,16.959 8,18.999 0.31,2.09 -1.9981,21.001 -1.9981,21.001 0,0 -10.7628,-15.8982 -11.0028,-17.9982 -0.89,-7.85 1.28,-71.209 0,-78.999 -0.31,-1.9 -14.9991,-12.00376 -14.9991,-12.00376 0,0 -10.14186,14.11996 -10.00186,15.99996 1.59,20.91 27.00276,208 27.00276,208 0,0 -15.22,-5.439 -16,-6.999 -2.26,-4.51 -10.10997,-44.321 -11.99997,-49.001 -0.51,-1.26 -10.99907,-8 -10.99907,-8 0,0 -2.33186,31.5128 -2.00186,35.0028 0.28,2.9 7.92,25.09 8,28 0.03,1.14 -5.86907,8.8472 -6.99907,8.9972 -11.62,1.59 -105.31093,8.89 -117.00093,8 -17.51,-1.33 -155.62093,-27.5181 -173.00093,-29.9981 -3.66,-0.52 -33.38721,-0.79 -36.99721,0 -2.11,0.46 -15.84186,12.09 -18.00186,12 -3.49,-0.14 -28.53,-14.3919 -32,-14.0019 -2.96,0.33 -20.17814,17.6538 -21.99814,20.0038 -0.68,0.88 -2.54186,10.019 -2.00186,10.999 3,5.38 31.87,45.4182 36,49.9982 5.12,5.67 49.86,47.45 56,52 9.32,6.9 87.27814,57.5918 97.99814,62.0018 17.73,7.29 165.2,50.1982 184,53.9982 11.09,2.24 101.86096,4.0318 113.00096,6.0018 2.37,0.42 16.0109,14.8072 17.0009,16.9972 1.03,2.29 1.2419,22.611 2.0019,25.001 1.27,4.01 17.99804,38.0018 17.99804,38.0018 0,0 11.1291,-10.38 10.9991,-12 -0.42,-5.23 -15.41,-44.7818 -16,-50.0018 -0.17,-1.49 7.5109,-11.81 9.0009,-12 1.65,-0.22 13.2581,7.5109 13.9981,9.0009 2.98,5.97 18.5719,57.2791 22.0019,62.9991 0.88,1.47 17.0009,2.0018 17.0009,2.0018 0,0 -18.55,-53.84 -20,-60 -0.28,-1.2 2.0091,-11.26 2.9991,-12 1.04,-0.78 12.4509,-1.18 13.0009,0 3.8,8.17 26.9991,85.9982 26.9991,85.9982 0,0 -99.10184,-3.421 -110.00184,-5.001 -20.18,-2.93 -180.35996,-34.5 -199.99996,-40 -14.09,-3.94 -122.89,-47.4981 -136,-53.9981 -10.79,-5.35 -92.45814,-56.66 -101.99814,-64 -7.06,-5.43 -57.16907,-56.2591 -62.99907,-62.9991 -3.12,-3.61 -23.87186,-35.73 -26.00186,-40 -1.5,-3 -9.77814,-28.65 -9.99814,-32 -0.59,-9.08 0.73814,-81.9928 1.99814,-91.0028 0.57,-4.08 13.95,-34.4181 16,-37.9981 3.37,-5.87 33.80186,-50.7 38.00186,-56 1.93,-2.44 20.36907,-19.3309 22.99907,-21.0009 6.73,-4.27 62.64186,-34.9582 70.00186,-37.9982 11.11,-4.59 102.33814,-35.11183 113.99814,-38.00183 11.01,-2.73 100.66,-17.70814 112,-17.99814 9.86,-0.255 55.7014,-1.31831 100.7814,-0.53581 z m 123.15904,16.53581 c 0.021,-0.002 0.042,-9.4e-4 0.06,0 6.29,0.35 59.6619,5.15907 62.0019,10.99907 6.57,16.38 12.9972,176 12.9972,176 0,0 -9.8582,-1.9691 -9.9982,-2.9991 -0.75,-5.45 2.4782,-49.5228 1.9982,-55.0028 -0.13,-1.52 -7.74,-11.4972 -8,-12.9972 -1.56,-9.02 -7.7982,-82.11276 -9.9982,-91.00276 -0.32,-1.28 -12.2609,-3.08814 -13.0009,-1.99814 -1.72,2.53 -5.9981,30.0019 -5.9981,30.0019 0,0 -9.0828,-27.4419 -11.0028,-30.0019 -0.79,-1.05 -11.7172,-2.31814 -12.9972,-1.99814 -0.96,0.24 -7.0028,6.99907 -7.0028,6.99907 0,0 -8.08,-18.75093 -8,-21.00093 0.039,-1.12219 7.6172,-6.87676 8.9414,-6.99907 z m 87.4232,13.64837 c 4.9096,-0.2249 20.6363,3.34884 20.6363,3.34884 0,0 -13.4481,19.45186 -13.9981,22.00186 -0.91,4.2 -0.6,38.7391 0,42.9991 1.01,7.21 15.31,63.749 16,70.999 0.24,2.49 -7.0028,24 -7.0028,24 0,0 -7.61,-2.239 -8,-2.999 -1.14,-2.2 -5.8582,-21.53 -5.9982,-24 -0.46,-8.29 0.65,-74.7291 0,-82.9991 -0.16,-2.06 -7.88,-16.9391 -8,-18.9991 -0.19,-3.43 2.741,-31.41183 5.001,-34.00183 0.1825,-0.20875 0.6605,-0.31764 1.3618,-0.34977 z m 2117.1237,3.49023 v 0 c 0.057,0.0325 0.1798,0.22947 0.3758,0.6214 0.01,0.0173 0.017,0.0348 0.026,0.0521 0,0.32035 -0.026,0.66075 -0.067,1.01954 -0.087,-0.3496 -0.1654,-0.65875 -0.2232,-0.91163 -0.1002,-0.43837 -0.1466,-0.71752 -0.1154,-0.77767 z m -1449.4921,3.86233 v 0 c 7.53,9.85 58.2118,95.34724 66.0018,104.99724 v 0 c -7.79,-9.65 -58.4719,-95.14724 -66.0019,-104.99724 z m -926.99524,8 c 0,0 -9.75186,26.84814 -10.00186,29.99814 -0.56,6.88 1.26186,62.1409 2.00186,69.0009 0.27,2.52 6.58,21.91 8,24 0.66,0.97 10.99907,4 10.99907,4 0,0 -2.94,-110.7428 -4,-123.00276 -0.07,-0.8 -6.99907,-3.99628 -6.99907,-3.99628 z m 716.99714,9.99814 v 0 c 2.32,3.4 18.49,32.17 20,36 1.51,3.84 9.8382,35.88 9.9982,40 0.84,21.28 1.76,191.7709 0,213.0009 -1.25,15.05 -26.1182,133.41 -29.9982,148 -2.94,11.07 -33.6018,97.43 -38.0018,108 -2.62,6.28 -28.23,54.34 -32,60 -0.94,1.41 -6.2032,6.9954 -11.5982,12.4354 5.395,-5.44 10.6544,-11.0254 11.5944,-12.4354 3.77,-5.66 29.38,-53.72 32,-60 4.4,-10.57 35.0619,-96.93 38.0019,-108 3.88,-14.59 28.7481,-132.95 29.9981,-148 1.76,-21.23 0.84,-191.7209 0,-213.0009 -0.16,-4.12 -8.4881,-36.16 -9.9981,-40 -1.51,-3.83 -17.68,-32.6 -20,-36 z m 824.1042,47.8177 v 0 c -0.065,0.063 -0.1,0.1248 -0.1042,0.1823 -0.29,3.94 6.2882,35.0691 5.9982,38.9991 -0.52,6.92 -11.9582,61.36 -13.9982,68 -1.98,6.43 -22.5318,56.2418 -26.0018,62.0018 -0.083,0.1377 -0.2366,0.3187 -0.4465,0.5358 0.2094,-0.2167 0.36,-0.3983 0.4427,-0.5358 3.47,-5.76 24.0219,-55.5718 26.0019,-62.0018 2.04,-6.64 13.4781,-61.08 13.9981,-68 0.29,-3.93 -6.2881,-35.0591 -5.9981,-38.9991 0,-0.057 0.039,-0.1189 0.1042,-0.1823 z M 840.62856,330.0032 c 0,0 -2.79814,28.0028 -1.99814,31.0028 0.43,1.58 12.99721,9.9982 12.99721,9.9982 0,0 2.55186,-18.9572 2.00186,-20.9972 -0.62,-2.3 -13.00093,-20.0038 -13.00093,-20.0038 z m 2409.93854,15.814 c 0.2024,0.055 0.4187,0.1406 0.6474,0.2642 -0.2287,-0.1236 -0.445,-0.2088 -0.6474,-0.2642 z m -64.1377,9.6781 v 0 c -10.1297,25.9465 -20.1981,51.901 -22.8056,57.5107 2.6075,-5.6097 12.6723,-31.5643 22.8018,-57.5107 z m -1320.3869,29.4251 c -0.9395,0.9956 -1.8882,1.9711 -2.6977,2.7387 -0.6014,0.5702 -1.1141,1.0131 -1.4475,1.2204 -0.082,0.051 -0.1524,0.09 -0.2121,0.1116 0.06,-0.022 0.1299,-0.06 0.2121,-0.1116 0.3344,-0.2086 0.846,-0.6499 1.4475,-1.2204 0.802,-0.7608 1.767,-1.753 2.6977,-2.7387 z m 89.5813,11.0847 v 0 c 3.79,4.64 24.3518,48.2381 26.0018,53.9981 2.59,9.07 16,83.561 16,93.001 0,11.51 -13.47,102.7718 -16,114.0018 0,0.019 -0.013,0.039 -0.022,0.06 -0.019,0.042 -0.048,0.086 -0.086,0.1339 0.037,-0.047 0.067,-0.093 0.086,-0.1339 0.01,-0.021 0.014,-0.041 0.019,-0.06 2.53,-11.23 16,-102.4918 16,-114.0018 0,-9.44 -13.41,-83.931 -16,-93.001 -1.65,-5.76 -22.2119,-49.3581 -26.0019,-53.9981 z m 541.001,1.0009 v 0 c -5.03,4.27 -37.7091,46.0582 -42.9991,49.9982 v 0 c 5.29,-3.94 37.9691,-45.7282 42.9991,-49.9982 z m 135.5497,0.1265 c -0.4857,0.2525 -1.1827,0.8586 -1.9869,1.6782 -3.217,3.2782 -8.1862,9.9799 -8.5582,11.1925 -0.86,2.78 -1.1418,26.221 -2.0018,29.001 -0.01,0.021 -0.023,0.04 -0.041,0.06 0.018,-0.02 0.031,-0.039 0.037,-0.06 0.86,-2.78 1.1419,-26.221 2.0019,-29.001 0.3721,-1.2128 5.3449,-7.915 8.5619,-11.1925 0.8062,-0.8214 1.5013,-1.4275 1.9869,-1.6782 z m -88.6809,4.547 v 0 c -2.1402,2.2883 -4.0697,4.6847 -3.8697,5.3247 1.73,5.55 25.83,45.599 28,50.999 5.65,14.06 43.9918,129.0928 50.0018,143.0028 4.83,11.17 53.5782,95.6591 57.9982,106.9991 5.04,12.93 33.57,120.3381 36,133.9981 2.19,12.35 10.6718,112.481 10.0018,125.001 -0.74,13.99 -20.38,124.4718 -24,138.0018 -1.83,6.83 -26.0218,58.16 -30.0018,64 -0.027,0.039 -0.067,0.077 -0.1191,0.1154 0.051,-0.038 0.089,-0.077 0.1153,-0.1154 3.98,-5.84 28.1719,-57.17 30.0019,-64 3.62,-13.53 23.26,-124.0118 24,-138.0018 0.67,-12.52 -7.8119,-112.651 -10.0019,-125.001 -2.43,-13.66 -30.96,-121.0681 -36,-133.9981 -4.42,-11.34 -53.1681,-95.8291 -57.9981,-106.9991 -6.01,-13.91 -44.3519,-128.9428 -50.0019,-143.0028 -2.17,-5.4 -26.27,-45.449 -28,-50.999 -0.2,-0.64 1.7296,-3.0364 3.8698,-5.3247 z m -761.8679,22.3256 v 0 c -1.92,2.13 -11.46,23.1881 -12,25.9981 -2.28,11.99 -13.59,109.041 -16,121.001 -3,14.88 -35.3018,132.0628 -38.0018,147.0028 -1.12,6.2 -1.04,56.789 0,62.999 0.2475,1.47 6.4365,8.6753 10.266,12.5582 v 0 c -3.8295,-3.8829 -10.0186,-11.0882 -10.2661,-12.5582 -1.04,-6.21 -1.12,-56.799 0,-62.999 2.7,-14.94 35.0019,-132.1228 38.0019,-147.0028 2.41,-11.96 13.72,-109.011 16,-121.001 0.54,-2.81 10.08,-23.8681 12,-25.9981 z m 140,8 v 0 c 0.036,0.2542 17.179,121.4233 17.9982,134.9991 0.59,9.79 -2.36,88.3318 -4,98.0018 -1.79,10.58 -27.5982,92.5391 -29.9982,102.9991 -0.43,1.86 0.8282,17.4891 1.9982,18.9991 0.01,0.01 0.012,0.015 0.019,0.022 v 0 c -0.01,-0.01 -0.013,-0.015 -0.019,-0.022 -1.17,-1.51 -2.4281,-17.1391 -1.9981,-18.9991 2.4,-10.46 28.2081,-92.4191 29.9981,-102.9991 1.64,-9.67 4.59,-88.2118 4,-98.0018 -0.82,-13.59 -17.9981,-134.9991 -17.9981,-134.9991 z m 5.2577,0.6623 c 0.9284,0.1346 1.7296,0.2877 2.5749,0.4428 -0.8334,-0.1528 -1.6597,-0.3098 -2.5749,-0.4428 z m 448.2828,0.8893 c -0.6481,0.6665 -1.8493,1.6789 -3.3489,2.8651 -2.0077,1.5882 -4.5624,3.4964 -7.0846,5.3433 -5.1241,3.7522 -10.1061,7.2409 -10.1061,7.2409 v 0 c 0.1519,-0.1063 5.0634,-3.5447 10.1061,-7.2372 2.5213,-1.8463 5.0766,-3.755 7.0846,-5.3433 1.5037,-1.1893 2.7005,-2.1978 3.3489,-2.8651 z m -393.7079,223.7135 v 0 c -0.092,0.1001 -0.2199,0.2102 -0.3758,0.3312 0.1569,-0.1219 0.2836,-0.2342 0.3758,-0.3349 z m -5.3656,3.1554 c -2.7415,1.3624 -5.4661,2.5786 -5.4661,2.5786 0.1131,-0.051 2.7867,-1.2474 5.4661,-2.5786 z m 656.5321,32.5804 v 0 0 c 0.02,0.593 3.7243,111.6892 5.0009,123.9962 0.63,6.03 13.2282,52.9791 13.9982,58.9991 0.64,5.06 -0.75,45.9591 0,50.9991 0.87,5.86 15.6,51.0909 16,57.0009 0.61,8.9 -3.5982,80.4109 -5.9982,89.0009 -1.2562,4.5188 -22.8836,33.2692 -29.0009,39.1442 6.1173,-5.875 27.741,-34.6254 28.9972,-39.1442 2.4,-8.59 6.6081,-80.1009 5.9981,-89.0009 -0.4,-5.91 -15.13,-51.1409 -16,-57.0009 -0.75,-5.04 0.64,-45.9391 0,-50.9991 -0.77,-6.02 -13.3681,-52.9691 -13.9981,-58.9991 -1.28,-12.34 -5.0009,-124 -5.0009,-124 z m -466.9991,89.001 v 0 c 5.54,5.83 42.1482,58.9381 45.9982,65.9981 2.21,4.05 13.4018,39.42 14.0018,44 0.62,4.66 -2.0018,46.9991 -2.0018,46.9991 0,0 0,-0.01 0,-0.011 0.044,-0.7162 2.6166,-42.368 2.0019,-46.9879 -0.6,-4.58 -11.7919,-39.95 -14.0019,-44 -3.85,-7.06 -40.4581,-60.1681 -45.9981,-65.9981 z m -234.0019,25.9981 v 0 c -7.04,7.93 -56.5482,76.9119 -61.9982,86.0019 -3,5 -20.3518,48.4081 -22.0018,53.9981 -1.76,5.96 -10.08,55.0909 -12,61.0009 -0.057,0.1744 -0.2728,0.4582 -0.5991,0.8224 0.3263,-0.3642 0.5385,-0.648 0.5953,-0.8224 1.92,-5.91 10.24,-55.0409 12,-61.0009 1.65,-5.59 19.0019,-48.9981 22.0019,-53.9981 5.45,-9.09 54.9581,-78.0719 61.9981,-86.0019 z m -85.6334,0.186 v 0 c 1.9444,1.7481 5.6335,15.1274 5.6335,16.8149 0,1.2563 -4.4124,9.8954 -5.7712,11.7284 -0.091,0.1222 -0.1657,0.2141 -0.227,0.2716 v 0 c 0.061,-0.057 0.1401,-0.1494 0.2307,-0.2716 1.3588,-1.833 5.7674,-10.4721 5.7674,-11.7284 0,-1.6875 -3.6891,-15.0668 -5.6334,-16.8149 z m -1045.01579,3.7991 c 0.51324,0.7361 0.98536,1.3886 1.30976,1.7265 -0.32416,-0.3378 -0.79719,-0.9915 -1.30976,-1.7265 z m 9.2093,41.1907 c 1.36289,0.3633 3.3449,1.1856 5.6707,2.2735 9.30318,4.3518 24.10561,12.9631 26.77209,13.5516 -2.66648,-0.5885 -17.46891,-9.1998 -26.77209,-13.5516 -2.3258,-1.0879 -4.30781,-1.9102 -5.6707,-2.2735 z m 546.50409,8.4242 c 1.4266,1.0442 3.8182,3.2846 6.0949,5.5107 -2.2736,-2.2228 -4.6695,-4.4669 -6.0949,-5.5107 z m -439.81014,15.0214 c 0.3016,0.1251 0.5541,0.2508 0.7516,0.3795 -0.1975,-0.1287 -0.45,-0.2544 -0.7516,-0.3795 z m 1137.59254,53.2614 c 13.8087,3.7421 28.2365,7.8456 31.159,9.1163 -2.9225,-1.2707 -17.3504,-5.3742 -31.159,-9.1163 z m -1424.84091,1.1163 c 5.05842,2.1588 29.35485,15.2817 50.6493,27.0549 -21.29448,-11.7732 -45.59087,-24.8961 -50.6493,-27.0549 z m 453.38781,63.4679 v 0 c -6.5595,6.3978 -21.4692,59.7042 -21.3917,66.5339 0.03,2.6625 11.2124,15.5339 18.1061,22.5414 -6.8935,-7.007 -18.0798,-19.8786 -18.1098,-22.5414 -0.078,-6.8297 14.8322,-60.1361 21.3916,-66.5339 z m 750.7275,16.6586 c -3.1484,3.0076 -9.1163,7.8735 -9.1163,7.8735 v 0 c 0.1628,-0.1327 6.0106,-4.9038 9.1163,-7.8697 z m -780.2344,85.8567 c -0.078,3e-4 -0.1748,0.018 -0.2903,0.048 0.1151,-0.03 0.2127,-0.049 0.2903,-0.048 z m -7.5238,4.5507 v 0 c -0.2009,0.1971 -0.3297,0.3592 -0.361,0.4689 -0.63,2.21 -1.5,21.249 0,22.999 v 0 c -1.5,-1.75 -0.63,-20.789 0,-22.999 0.031,-0.1098 0.1597,-0.2715 0.3609,-0.4689 z m 91.721,2.5228 v 0 c 0.8622,0.8079 2.4297,8.2186 1.9163,8.9451 -0.029,0.041 -0.074,0.087 -0.1228,0.1377 0.049,-0.051 0.09,-0.096 0.119,-0.1377 0.5135,-0.7265 -1.054,-8.1372 -1.9162,-8.9451 z m -55.974,40.0409 v 0 c 0.038,0.04 0.078,0.09 0.1228,0.1452 -0.046,-0.057 -0.087,-0.1045 -0.1265,-0.1452 z m 0.1302,0.1489 c 1.3874,1.7297 5.7638,10.7535 5.7638,10.7535 v 0 c -0.028,-0.058 -4.375,-9.0237 -5.76,-10.7535 z m 1416.4763,4.6102 v 0 c -6.9268,6.8322 -23.855,29.4764 -26.7162,32.1451 v 0 c 2.8613,-2.6687 19.7894,-25.3129 26.7163,-32.1451 z m -1462.0949,3.6763 c -3.0063,0.014 -5.668,0.074 -6.9581,0.3088 1.291,-0.2342 3.9542,-0.2944 6.9581,-0.3088 z m -9.4288,1.9126 v 0 c -5.3575,5.5277 -17.7925,24.7572 -19.1925,27.5572 -0.5775,1.1475 -1.8477,9.2755 -2.121,13.9125 -0.091,1.5457 -0.07,2.7022 0.1228,3.0847 0.285,0.57 1.4679,1.86 3.1182,3.4865 -1.6511,-1.6273 -2.8368,-2.9163 -3.1219,-3.4865 -0.1925,-0.3825 -0.2101,-1.539 -0.1191,-3.0847 0.2733,-4.637 1.5397,-12.765 2.1172,-13.9125 1.4,-2.8 13.8351,-22.0295 19.1926,-27.5572 z m 1640.2493,14.8911 v 0 c -0.4323,0.1608 -1.1158,0.3106 -1.8902,0.4503 0.7803,-0.1407 1.4612,-0.2919 1.8939,-0.454 z m -2.1098,0.4986 c -0.5342,0.091 -1.2623,0.1528 -1.8865,0.2344 0.6217,-0.081 1.3541,-0.1432 1.8865,-0.2344 z m -2354.00548,13.0196 h 0.004 c -16.40556,16.2878 -34.98212,35.116 -38.32558,39.1479 3.34345,-4.0318 21.91632,-22.8602 38.32186,-39.1479 z m 667.79164,59.092 v 0 c -3.3547,3.476 -6.5831,7.1371 -7.1181,8.0521 -11.07,19.03 -94.49817,174.221 -105.99817,193.001 -8.13,13.27 -81.63186,113.869 -90.00186,126.999 -6.26,9.81 -51.27,91.3719 -56,102.0019 -4.11,9.25 -29.73,86.14 -32,96 -1.76,7.64 -8.14,70.1619 -8,78.0019 0.07,3.83 7.45186,34.1372 10.00186,36.9972 h -0.004 c -2.55,-2.86 -9.93186,-33.1672 -10.00186,-36.9972 -0.14,-7.84 6.24,-70.3619 8,-78.0019 2.27,-9.86 27.89,-86.75 32,-96 4.73,-10.63 49.74,-92.1919 56,-102.0019 8.37,-13.13 81.87186,-113.729 90.00186,-126.999 11.5,-18.78 94.92807,-173.971 105.99807,-193.001 0.535,-0.915 3.7634,-4.5761 7.1182,-8.0521 z m 780.36454,54.5898 c 0.6697,0.2271 1.4751,0.5519 2.2475,0.8521 -0.7722,-0.3001 -1.5779,-0.625 -2.2475,-0.8521 z m 909.2279,245.1535 v 0 c -4.0367,10.5011 -8.322,21.9648 -8.7107,24.3126 0.3887,-2.3478 4.6702,-13.8115 8.7069,-24.3126 z M 795.62391,1868.0051 h 0.004 c 0,0 29.18186,77.2209 34.00186,85.0009 h -0.004 c -4.80629,-7.7578 -33.83674,-84.5603 -34.00186,-84.9972 z m 214.70129,198.586 v 0 c 4.1567,4.1313 17.7795,25.3159 20.3014,27.4159 v 0 c -2.5218,-2.1 -16.1446,-23.2846 -20.3014,-27.4159 z m -253.69664,20.4131 c 5.66112,1.9387 36.59224,9.0289 61.90512,16.1376 -25.3129,-7.1087 -56.24399,-14.1989 -61.90512,-16.1376 z m 514.99524,2.999 v 0 c 0,0 0.6166,1.6329 1.1758,3.3266 0.5497,1.6649 1.0442,3.3887 0.826,3.6762 v 0 c 0.2181,-0.2875 -0.2727,-2.0114 -0.8223,-3.6762 -0.5497,-1.6649 -1.1588,-3.272 -1.1796,-3.3266 z m -221.9981,164.0038 v 0 c -3.26,3.71 -23.7618,37.5981 -26.0018,41.9981 -4.18,8.22 -35.14814,75.23 -37.99814,84 -1.21,3.71 -2.3618,35.1091 -2.0018,38.9991 0.25,2.71 8.39,23.3118 8,26.0018 -0.15,1.015 -3.4226,4.3086 -6.7684,7.5758 3.3458,-3.2672 6.6146,-6.5608 6.7646,-7.5758 0.39,-2.69 -7.75,-23.2918 -8,-26.0018 -0.36,-3.89 0.7919,-35.2891 2.0019,-38.9991 2.85,-8.77 33.81804,-75.78 37.99804,-84 2.24,-4.4 22.7419,-38.2881 26.0019,-41.9981 z m -69.46224,203.1665 v 0 c -1.3325,1.3333 -2.3052,2.3741 -2.5377,2.8316 -1.33,2.59 -8.07,25.09 -8,28 0.34,14.75 11.7,132.2491 12,146.9991 0,0.059 -0.038,0.1229 -0.1042,0.1897 0.067,-0.067 0.1018,-0.1304 0.1005,-0.1897 -0.3,-14.75 -11.66,-132.2491 -12,-146.9991 -0.07,-2.91 6.67,-25.41 8,-28 0.2325,-0.4575 1.2052,-1.4983 2.5377,-2.8316 z m -392.53955,22.8316 h 0.004 c 0,0 33.72,76.9619 36,86.0019 0.82,3.25 -4.19814,30.1672 -5.99814,32.9972 -3.79,5.97 -42.56,47.47 -48,52 h -0.004 c 5.44,-4.53 44.21,-46.03 48,-52 1.8,-2.83 6.81814,-29.7472 5.99814,-32.9972 -2.28,-9.04 -36,-86.0019 -36,-86.0019 z m 218.00558,22.0019 c 0,0 3.38374,2.8967 5.06791,4.7032 -1.68356,-1.8059 -5.06595,-4.7016 -5.06791,-4.7032 z m 175.04747,133.6632 c -1.0869,0.4501 -2.9204,0.9155 -4.5693,1.2205 1.649,-0.3051 3.4829,-0.7704 4.5693,-1.2205 z m -5.1312,1.3321 c -0.8076,0.1323 -1.5445,0.2197 -2.0725,0.2195 0.5279,-10e-5 1.2665,-0.087 2.0725,-0.2195 z m -21.8121,29.0158 c 0.027,0.01 0.056,0.023 0.086,0.037 -0.029,-0.014 -0.059,-0.029 -0.086,-0.037 z m 0.3647,0.2344 c 0.06,0.052 0.1242,0.1153 0.1897,0.1824 0.8029,0.8217 2.0066,2.709 3.0735,4.6735 -1.0652,-1.9613 -2.2706,-3.8498 -3.0735,-4.6735 -0.067,-0.069 -0.1286,-0.129 -0.1897,-0.1824 z m 5.0567,8.5954 c 0.2683,0.6742 0.4518,1.2464 0.5098,1.6446 0.035,0.2394 0.026,0.4153 -0.037,0.5135 -0.2225,0.345 -0.748,0.9061 -1.4996,1.6224 0.7516,-0.7163 1.2733,-1.2774 1.4958,-1.6224 0.064,-0.098 0.076,-0.2744 0.041,-0.5135 -0.058,-0.3983 -0.2412,-0.9697 -0.5098,-1.6446 z m -515.53115,69.1572 h 0.004 c -5.62,5.12 -40.43,55.2919 -44,62.0019 -3.29,6.2 -22.67,59.1081 -24,65.9981 -0.53,2.72 4.52186,24.6591 6.00186,26.9991 h -0.004 c -1.48,-2.34 -6.53186,-24.2791 -6.00186,-26.9991 1.33,-6.89 20.71,-59.7981 24,-65.9981 3.57,-6.71 38.38,-56.8819 44,-62.0019 z m 195.00279,29.0009 h 0.004 c -4.31,3.49 -31.94279,38.3791 -35.00279,42.9991 -1.29,1.95 -8.33,19.6819 -8,22.0019 1.085,7.4981 14.29627,67.2949 21.33953,74.4707 -7.04274,-7.1663 -20.25815,-66.9719 -21.34325,-74.4707 -0.33,-2.32 6.71,-20.0519 8,-22.0019 3.06,-4.62 30.69279,-39.5091 35.00279,-42.9991 z m -133.64465,38.9693 c -0.15192,0 -0.27161,0.01 -0.35349,0.03 0.0819,-0.024 0.20157,-0.033 0.35349,-0.03 z m 10.67535,2.9731 c 0.78212,0.3166 1.39362,0.6061 1.73023,0.8409 -0.33661,-0.2347 -0.94811,-0.5244 -1.73023,-0.8409 z m 703.9664,165.0567 v 0 c 0,0 -0.3197,3.4455 -0.7293,7.0474 -0.3048,2.6794 -0.6606,5.4457 -0.9749,6.9359 -0.1045,0.4955 -0.202,0.8518 -0.294,1.0158 -2.73,4.89 -32,46.0018 -32,46.0018 0,0 35.6297,17.6916 58.2847,29.4103 0,-4e-4 -0.01,3e-4 -0.01,0 -22.6539,-11.7181 -58.2735,-29.4085 -58.2772,-29.4103 v 0 c 0,0 29.27,-41.1118 32,-46.0018 0.092,-0.1643 0.1929,-0.5187 0.2977,-1.0158 0.3142,-1.4914 0.6703,-4.2575 0.9749,-6.9359 0.4061,-3.5711 0.7204,-6.991 0.7255,-7.0474 z m -167.8586,2.0242 c 0.1284,0.045 0.2874,0.1575 0.4726,0.3237 -0.1835,-0.1647 -0.3447,-0.2779 -0.4726,-0.3237 z m 5.1535,7.1218 c 0.4645,0.8925 0.7504,1.5876 0.7107,1.8531 -0.3,2.04 -9.7518,15.9618 -10.0018,18.0018 -0.06,0.49 1.4526,2.1671 3.0995,3.7582 v 0 c -1.647,-1.5911 -3.1596,-3.2682 -3.0996,-3.7582 0.25,-2.04 9.7019,-15.9618 10.0019,-18.0018 0.04,-0.2656 -0.2423,-0.9604 -0.707,-1.8531 z m 40.0558,80.5247 c -0.785,0.6669 -1.2814,1.7648 -1.9981,2.5042 0.7173,-0.74 1.2119,-1.8375 1.9981,-2.5042 z m -9.2465,2.906 c -0.2636,0.053 -0.522,0.1402 -0.7702,0.2642 0.2489,-0.124 0.5058,-0.2111 0.7702,-0.2642 z m -2.7311,1.7266 v 0 c -1.4539,1.4596 -2.5683,3.3898 -4.093,4.7888 1.5247,-1.399 2.6354,-3.3292 4.0893,-4.7888 z m -8.2493,5.3544 c -0.086,0.031 -0.1672,0.074 -0.2419,0.1339 0.075,-0.059 0.1552,-0.1036 0.2419,-0.1339 z m -0.32,0.2009 v 0 c -1.6546,1.6546 1.0464,4.9284 0,7.0214 -0.9325,1.8649 -1.6249,2.8832 -2.1544,3.386 v 0 c -0.053,0.05 -0.1065,0.094 -0.1563,0.1339 -0.1,0.08 -0.1913,0.1419 -0.2791,0.1861 -0.088,0.044 -0.172,0.072 -0.2493,0.085 0.077,-0.014 0.1615,-0.041 0.2493,-0.085 0.088,-0.045 0.1796,-0.1054 0.2791,-0.1861 0.05,-0.04 0.1033,-0.087 0.1563,-0.1377 0.5292,-0.5035 1.2194,-1.5234 2.1507,-3.386 1.0464,-2.093 -1.6546,-5.3668 0,-7.0214 z m -4.4391,9.6223 c -0.038,0.021 -0.078,0.053 -0.1191,0.097 v 0 c 0.041,-0.043 0.081,-0.073 0.1191,-0.093 z m -0.1712,0.1563 c -0.1708,0.2171 -0.3735,0.643 -0.6325,1.3842 -0.4145,1.1859 -0.9718,3.1763 -1.7749,6.3888 -1.2943,5.1772 -1.3241,13.4775 -1.0158,21.5256 -0.3082,-8.0473 -0.2803,-16.3489 1.0121,-21.5256 0.8047,-3.2188 1.3639,-5.2037 1.7786,-6.3888 0.259,-0.7403 0.4617,-1.1687 0.6325,-1.3842 z m -3.4232,29.3023 c 0.3083,8.0465 0.9547,15.8424 1.0158,20.0075 v 0 c -0.059,-4.1653 -0.7038,-11.959 -1.0121,-20.0075 z m 0.3088,20.3535 v 0 c -0.03,0.03 -0.045,0.064 -0.045,0.089 0,0.011 0.01,0.023 0.015,0.034 v 0 c -0.01,-0.01 -0.013,-0.022 -0.015,-0.034 v 0 c -5e-4,-0.025 0.015,-0.055 0.045,-0.086 z m 0.071,0.1749 c 0.069,0.023 0.1713,0.038 0.3089,0.048 -0.1363,-0.01 -0.2392,-0.026 -0.3089,-0.048 z" /><g
     id="g72"
     transform="translate(-96.749459,-786.00159)"><g
       id="color_1"
       fill="#7759c0"
       stroke="#7759c0"
       stroke-width="2"
       stroke-linejoin="round"
       vector-effect="non-scaling-stroke"><path
         d="m 617,3604 c -0.8,-1.1 -11.69,-4.38 -13,-4 -6.45,1.89 -56.73,21.83 -62,26 -1.8,1.43 0,23 0,23 0,0 40.88,-4.08 45,-6 3.59,-1.67 25.59,-24.86 28,-28 0.68,-0.89 2.66,-10.1 2,-11 z m 226,-192 c 0,0 -10.71,6.67 -11,8 -0.71,3.23 2,33 2,33 0,0 12.62,-10.27 13,-12 0.63,-2.86 -4,-29 -4,-29 z m 83,-78 c 0,0 -4.61,31.53 -4,35 0.36,2.03 13,16 13,16 0,0 9.94,-8.59 10,-10 0.16,-3.59 -6.49,-31.74 -8,-35 -0.53,-1.14 -11,-6 -11,-6 z m -83,-14 c 0,0 -18.31,19.18 -19,22 -0.94,3.81 4,39 4,39 0,0 10.68,-6.68 11,-8 1.27,-5.16 4,-53 4,-53 z m 62,-30 c 0,0 -12.33,12.21 -13,14 -1.5,4 -8.08,37.73 -8,42 0.12,6.58 10,65 10,65 0,0 12.75,-4.59 13,-6 0.79,-4.45 -4.17,-40.49 -4,-45 0.24,-6.45 7.82,-57.55 8,-64 0.02,-0.85 -6,-6 -6,-6 z m 295,-456 c 0,0 3,15 3,15 0,0 8,-9 8,-9 z m 50,-32 c -1.09,0.29 -7.78,6.89 -8,8 -0.63,3.24 -0.62,29.76 0,33 0.8,4.16 11.91,36.32 14,40 0.58,1.02 9.88,4.33 11,4 1.04,-0.31 6.13,-7.93 6,-9 -0.9,-7.32 -13.86,-64.94 -16,-72 -0.23,-0.77 -6.22,-4.21 -7,-4 z M 978,2664 c -2.12,1.34 -10.43,20.53 -10,23 1.07,6.19 20.92,52.53 24,58 2.37,4.22 26.33,34.84 30,38 5.74,4.94 63,42 63,42 0,0 -7.91,-33.78 -10,-37 -2.89,-4.45 -35.02,-32.61 -38,-37 -5.12,-7.55 -36.88,-73.45 -42,-81 -1.01,-1.49 -15.47,-6.96 -17,-6 z m 1297,-54 c 0,0 -11.07,2.83 -11,4 0.49,8.64 16.37,76.36 16,85 -0.26,6.01 -18.36,51.21 -22,56 -2.14,2.81 -28.48,14.66 -32,15 -2.23,0.21 -18.34,-8.5 -20,-10 -1.57,-1.41 -9.27,-16.8 -11,-18 -1.23,-0.85 -15,0 -15,0 0,0 13.17,53.89 14,60 0.58,4.26 0.63,38.75 0,43 -0.2,1.35 -7.92,9.64 -8,11 -0.14,2.37 6,23 6,23 0,0 12.11,-4.88 13,-6 1.18,-1.49 5.81,-16.11 6,-18 0.61,-6.07 -1.49,-55.99 2,-61 2.53,-3.63 40.41,-2.41 44,-5 5.36,-3.86 35.48,-47.9 38,-54 1.64,-3.98 2.68,-38.75 2,-43 -1.34,-8.38 -22,-82 -22,-82 z M 840,2576 c 0,0 -11.39,14.1 -12,16 -0.46,1.44 1.45,13.59 2,15 0.68,1.76 8.57,14.77 10,16 0.85,0.73 9.93,2.32 11,2 0.88,-0.26 6.2,-6.1 6,-7 -0.99,-4.42 -17,-42 -17,-42 z m 893,-122 c 0,0 -10.5,10.45 -11,12 -2.06,6.42 -13.77,59.26 -14,66 -0.38,11.12 6.46,99.98 8,111 0.28,2.04 10,18 10,18 0,0 6.98,-3.19 7,-4 0.09,-3.35 -5.94,-29.65 -6,-33 -0.14,-8.61 3.07,-77.44 4,-86 0.28,-2.61 7.94,-22.38 8,-25 0.14,-5.93 -6,-59 -6,-59 z m 684,-148 c -1.29,-1.12 -14.29,-5.93 -16,-6 -3.12,-0.13 -28,3.13 -31,4 -2.58,0.75 -21.88,10.36 -24,12 -2.35,1.82 -18.64,19.36 -20,22 -1.92,3.71 -11.62,35.84 -12,40 -0.24,2.56 4.11,23.26 6,25 1.41,1.29 19,-2 19,-2 0,0 -7.02,-29.8 -6,-33 1.29,-4.06 23.48,-30.59 27,-33 2.8,-1.92 29.72,-8.88 33,-8 3.14,0.84 22.69,19.76 23,23 0.5,5.13 -13.45,44.52 -16,49 -1.68,2.95 -22.2,21.08 -25,23 -2.36,1.62 -23.14,12 -26,12 -3.51,0 -33,-12 -33,-12 0,0 -2.44,13.55 -2,15 0.63,2.07 9.9,17.5 12,18 4.59,1.09 42.83,-1.8 47,-4 5.5,-2.9 40.16,-39.1 44,-44 2.04,-2.61 13.44,-26.74 14,-30 0.87,-5.03 0.99,-46 0,-51 -0.47,-2.4 -12.16,-18.4 -14,-20 z m 198,-132 c 0,0 -8.58,5 -9,6 -1.96,4.6 -13.11,43.08 -14,48 -0.14,0.79 3.2,7.07 4,7 3.44,-0.28 31.97,-6.71 33,-10 1.57,-5.05 -14,-51 -14,-51 z m -27,-90 c 0,0 -11.88,24.05 -12,27 -0.1,2.6 8.54,21.85 10,24 0.55,0.81 9,4 9,4 0,0 4.62,-44.12 4,-49 -0.16,-1.24 -11,-6 -11,-6 z m -721,4 c 0,0 -9.92,-4.45 -11,-4 -4.56,1.89 -38.3,22.72 -42,26 -0.98,0.87 -2.66,11.86 -2,13 0.72,1.24 11.63,6.4 13,6 3.19,-0.94 25.62,-15.67 28,-18 1.93,-1.88 14,-23 14,-23 z m -679,-26 c -0.24,1.09 1.3,10.13 2,11 0.67,0.84 8.93,4.07 10,4 5.15,-0.34 51,-8 51,-8 0,0 -3.24,-6.74 -4,-7 -5.05,-1.71 -46.66,-12 -52,-12 -1.39,0 -6.7,10.64 -7,12 z m 765,-118 c -0.84,-0.71 -10.14,-0.68 -11,0 -6.44,5.08 -54.32,50.08 -60,56 -3.94,4.1 -33.04,39.15 -36,44 -0.78,1.28 0,15 0,15 0,0 24.8,-11.9 27,-14 8.81,-8.4 74.44,-80.46 82,-90 0.69,-0.88 -1.15,-10.28 -2,-11 z m -1498,-4 c 0,0 -17.48,4.72 -19,6 -6.92,5.84 -58.22,57.03 -64,64 -2.11,2.55 -13.22,26.78 -14,30 -0.28,1.14 4,11 4,11 0,0 12.12,-4.87 13,-6 2.65,-3.44 18,-34.86 21,-38 5.55,-5.82 57.68,-43.96 63,-50 1.15,-1.31 -4,-17 -4,-17 z m 629,-116 c 0,0 4.68,14.07 6,15 1.75,1.23 18.87,4.13 21,4 1.34,-0.08 12,-6 12,-6 0,0 -11.76,-18.25 -14,-19 -2.44,-0.81 -25,6 -25,6 z m 1185,-74 c -0.82,-0.73 -10.04,-0.55 -11,0 -1.36,0.77 -10.32,10.47 -10,12 1.03,4.99 20.46,41.14 22,46 0.43,1.36 -1.61,13.67 -3,14 -5.55,1.3 -51.37,0.88 -57,0 -7.29,-1.14 -63.81,-18.37 -71,-20 -1.66,-0.38 -15.49,-0.78 -17,0 -2.65,1.36 -21.07,17.18 -22,20 -4.02,12.22 -24.11,113.27 -26,126 -0.92,6.24 -3.82,56.96 -2,63 1.22,4.06 26.16,28.2 30,30 9.48,4.45 90.99,25.67 100,31 2.33,1.38 -2.86,24.43 -2,27 0.87,2.62 17.49,18.28 18,21 0.44,2.38 -9.57,19.62 -10,22 -0.21,1.15 4,11 4,11 0,0 14.14,-13.98 15,-16 2.91,-6.84 19.1,-64.15 22,-71 1.55,-3.65 20.98,-29.17 22,-33 1.47,-5.51 1.12,-51.37 2,-57 0.73,-4.66 13.36,-40.33 14,-45 1.57,-11.42 8.15,-103.47 8,-115 -0.05,-4.32 -8.42,-37.98 -10,-42 -1.06,-2.68 -13.84,-22.08 -16,-24 z m -89,91 c 6.07,-1.87 56.79,6.68 63,8 2.36,0.5 20.17,8.42 22,10 1.25,1.08 7.05,13.35 7,15 -0.26,8.95 -7.43,80.42 -10,89 -0.66,2.19 -18.75,9.09 -20,11 -3.54,5.39 -22.77,53.42 -26,59 -0.6,1.05 -9.79,4.94 -11,5 -4.9,0.24 -44.26,-0.73 -49,-2 -3.35,-0.9 -28.84,-15.54 -29,-19 -0.52,-11.62 18.4,-103.32 23,-114 1.07,-2.49 24.34,-2.52 27,-2 1.25,0.24 8.61,7.79 9,9 0.58,1.81 1.07,17.43 0,19 -1.82,2.66 -24.63,16.09 -26,19 -0.77,1.63 8.22,14.7 10,15 3.25,0.54 28.71,-7.8 32,-8 3.32,-0.2 33,4 33,4 0,0 -2.77,-15.77 -4,-17 -1.23,-1.23 -15.49,-3.13 -17,-4 -1.23,-0.71 -8.63,-9.63 -9,-11 -0.97,-3.59 -1.78,-34.01 -4,-37 -2.37,-3.2 -34.43,-13.34 -36,-17 -1.39,-3.25 11.62,-30.96 15,-32 z m -35,-14 c 0,0 3.58,19.86 3,22 -1.19,4.4 -18.91,36.57 -20,41 -1.95,7.93 -8.55,72.97 -10,81 -0.56,3.11 -8.49,27.22 -10,30 -0.41,0.75 -7.28,3.46 -8,3 -1.57,-0.99 -11.08,-13.14 -11,-15 0.44,-10.02 13.87,-89.2 16,-99 1.08,-4.94 13.29,-43.73 16,-48 1.52,-2.39 24,-15 24,-15 z m 1112,-209 c -2.24,-0.22 -19.8,6.1 -21,8 -2.44,3.85 -11.29,39.5 -12,44 -0.3,1.89 0.85,17.48 2,19 1.35,1.78 17.79,9.69 20,10 2.31,0.32 20.97,-2.85 23,-4 2.1,-1.18 15.71,-15.61 16,-18 0.58,-4.73 -5.96,-42.69 -8,-47 -1,-2.11 -17.68,-11.77 -20,-12 z m -6,42 c 0,0 9,7 9,7 0,0 -8,1 -8,1 z m -1076,-34 c -3.35,-2.28 -34.01,-13.31 -38,-14 -4.24,-0.73 -38.8,-0.93 -43,0 -4.1,0.91 -34.46,15.74 -38,18 -3.71,2.37 -31.3,24.52 -34,28 -5,6.45 -38.95,62.43 -42,70 -2.63,6.53 -11.48,62.43 -14,69 -1.19,3.11 -22.37,21.69 -22,25 0.45,3.93 25.99,24.59 28,28 1.17,1.99 3.78,21.53 2,23 -4.82,3.96 -52.49,20.07 -58,23 -4.17,2.21 -38,28 -38,28 0,0 9.74,7.35 11,7 6.82,-1.88 58.3,-25.72 65,-28 2.19,-0.74 20.77,-2.59 23,-2 1.5,0.4 10.96,9.44 11,11 0.27,9.53 -6.23,85.63 -8,95 -1.45,7.64 -20.57,67.02 -24,74 -4.83,9.84 -54.62,82.58 -58,93 -1.9,5.85 8.56,54.87 8,61 -0.28,3.04 -13.8,23.88 -16,26 -8.19,7.87 -77.52,66.74 -87,73 -1.4,0.92 -14.91,-3.73 -16,-5 -4.11,-4.77 -29.41,-48.69 -34,-53 -3.91,-3.67 -42.69,-23.22 -48,-24 -7.44,-1.09 -67.6,4.63 -75,6 -2.46,0.46 -20.23,10.23 -22,12 -2.16,2.16 -16.17,22.95 -16,26 0.28,5.1 16.62,43.17 20,47 6.08,6.88 70.01,48.04 72,57 2.94,13.21 -28.27,118.57 -30,132 -1.29,10.02 -0.65,90.92 0,101 0.16,2.52 8,24 8,24 0,0 10.91,-2.83 11,-4 0.67,-8.28 -4.64,-74.72 -4,-83 0.77,-9.93 15.5,-88.36 18,-98 1.51,-5.82 18.3,-51.26 22,-56 1.79,-2.29 28,-8 28,-8 0,0 -90.57,-64.98 -100,-73 -2.12,-1.8 -13.06,-21.38 -14,-24 -0.51,-1.41 -0.55,-13.6 0,-15 0.62,-1.59 9.35,-12.57 11,-13 6.72,-1.76 62.07,-8.52 69,-8 4.11,0.31 34.8,13.39 38,16 3.55,2.89 25.94,32.54 27,37 1.19,4.99 -6.98,45.96 -6,51 0.47,2.44 16.95,17.4 19,16 18.26,-12.5 151.64,-129.11 168,-144 1.52,-1.39 9.49,-16 10,-18 0.72,-2.82 0.91,-26.3 2,-29 1.12,-2.77 16.7,-21.1 19,-23 1.32,-1.09 14.29,-5.9 16,-6 4.89,-0.3 44.19,1.03 49,2 7.19,1.45 63.37,18.85 70,22 3.85,1.83 31.45,23.03 33,27 1.38,3.53 -6.71,33.44 -8,37 -3.33,9.19 -33.63,81.26 -38,90 -4.25,8.5 -42.16,74.5 -48,82 -3.11,3.99 -36.77,27.11 -40,31 -1.88,2.26 -6.92,25.92 -9,28 -1.49,1.49 -18.93,2.4 -21,2 -2.19,-0.43 -18.36,-8.48 -20,-10 -3.95,-3.67 -32.02,-36.51 -35,-41 -2.37,-3.58 -15.68,-35.38 -18,-39 -0.38,-0.59 -7,0 -7,0 0,0 -0.71,17.24 0,19 2.15,5.31 24.42,45.53 28,50 4.9,6.13 51.81,48.36 56,55 1.2,1.9 -6.72,19.15 -8,21 -1.69,2.44 -18.22,19.95 -21,21 -1.63,0.62 -14.97,-5.59 -16,-7 -2.96,-4.04 -19.3,-40.78 -22,-45 -3.93,-6.13 -39.05,-52.67 -44,-58 -4.2,-4.52 -47,-40 -47,-40 0,0 -1.32,22.88 0,25 2.96,4.74 36.52,34.63 40,39 6.36,7.98 52.61,75.33 58,84 1.05,1.69 6.89,17.22 6,19 -1.68,3.36 -25.7,22.04 -28,25 -0.68,0.87 -0.69,10.14 0,11 2.3,2.88 26.93,20.47 28,24 0.7,2.32 -13.14,17.46 -15,19 -1.72,1.43 -17.79,9.65 -20,10 -3.07,0.48 -28.09,-0.92 -31,-2 -3.8,-1.4 -30.87,-19.43 -34,-22 -1.44,-1.18 -10.43,-13.23 -11,-15 -0.58,-1.81 -0.52,-17.17 0,-19 1.7,-5.96 21.14,-51.86 22,-58 0.2,-1.42 -11.89,-6.9 -13,-6 -3.36,2.72 -22.62,31.9 -24,36 -1.31,3.89 -2.73,36.96 -2,41 0.7,3.88 13.53,32.93 16,36 2.3,2.85 27.58,18.25 30,21 0.86,0.97 0.47,11.79 0,13 -2.57,6.59 -25.31,58.71 -30,64 -3.65,4.11 -43.77,23.28 -49,25 -2.56,0.84 -24.35,0.5 -27,0 -2.74,-0.52 -23.77,-8.34 -26,-10 -2.62,-1.95 -19.78,-21.97 -21,-25 -0.66,-1.62 2.91,-15.64 4,-17 2.26,-2.83 25.88,-20.06 28,-23 0.77,-1.07 -1.29,-11.9 -2,-13 -0.54,-0.83 -8.04,-4.21 -9,-4 -2.98,0.64 -25.67,10.04 -28,12 -2.85,2.39 -20.85,26.46 -22,30 -0.62,1.89 4.92,17.32 6,19 0.81,1.26 11.39,7.63 12,9 0.82,1.83 2.49,18.66 1,20 -2.45,2.21 -28.7,8 -32,8 -5.16,0 -46.28,-5.92 -51,-8 -4.02,-1.77 -30.27,-25.56 -33,-29 -0.94,-1.18 -2.72,-13.67 -2,-15 1.96,-3.61 23.8,-28.42 27,-31 1.55,-1.25 17.33,-4.92 19,-6 1.55,-1 11.2,-12.34 12,-14 0.48,-0.99 0.78,-10.22 0,-11 -1.1,-1.1 -13.5,-4.41 -15,-4 -5.26,1.46 -46.02,18.26 -50,22 -3.33,3.13 -17.62,37.45 -18,42 -0.26,3.13 9.91,26.66 12,29 3.89,4.36 40.46,34.14 46,36 8.09,2.72 76.49,8.67 85,8 2.33,-0.18 14.67,-15.95 17,-16 8.22,-0.17 72.78,13.86 81,14 3.98,0.07 34.85,-9.55 38,-12 4.39,-3.41 31.82,-38.89 34,-44 2.35,-5.5 5.91,-54.63 10,-59 3.44,-3.67 45.19,-3.54 50,-5 3.03,-0.92 24.69,-15.12 26,-18 2.56,-5.62 7.11,-55.54 10,-61 2.81,-5.32 40.1,-36.42 44,-41 8.14,-9.57 69.5,-89.25 76,-100 2.06,-3.41 6.1,-35.5 8,-39 5.61,-10.31 60.73,-86.52 66,-97 4.04,-8.03 24.45,-77.15 26,-86 0.88,-5.03 -2,-51 -2,-51 0,0 -20.68,8.74 -23,8 -2.9,-0.92 -18.52,-20.24 -21,-22 -3.5,-2.49 -33.9,-18.73 -38,-20 -8.3,-2.56 -76.91,-14.83 -85,-18 -2.59,-1.02 -17.14,-19.22 -17,-22 0.13,-2.68 16.67,-17.66 19,-19 2.53,-1.45 25.1,-7.73 28,-8 5.88,-0.54 53.26,-1.37 59,0 6.26,1.5 52.94,24.01 58,28 2.88,2.28 18,32 18,32 0,0 4.2,-9.85 4,-11 -0.44,-2.56 -8.37,-21.98 -10,-24 -2.67,-3.31 -28.45,-25.66 -32,-28 -4.11,-2.7 -39.19,-20.99 -44,-22 -5.97,-1.25 -54.95,-0.76 -61,0 -5.15,0.65 -50,14 -50,14 0,0 -3.39,-14.42 -3,-16 2.35,-9.49 28.33,-83.37 30,-93 1.56,-8.97 2.42,-81.91 2,-91 -0.38,-8.25 -10.98,-73.8 -10,-82 0.69,-5.77 22.63,-47.26 26,-52 2.62,-3.69 29.33,-28.35 33,-31 2.9,-2.1 28.49,-15.31 32,-16 3.83,-0.76 35.16,1.29 39,2 5.92,1.1 52.48,13.6 58,16 4.7,2.05 38.41,25.71 43,28 1.16,0.58 13,0 13,0 0,0 -13.58,-25 -16,-27 -5.19,-4.28 -51.7,-31.64 -58,-34 -5.11,-1.92 -48.54,-7.87 -54,-8 -7.02,-0.17 -70,5 -70,5 0,0 22.04,-29.22 25,-32 2.22,-2.09 23.16,-14.88 26,-16 3.34,-1.31 31.42,-8.29 35,-8 4.04,0.33 34.55,11.87 38,14 8.65,5.33 82,60 82,60 0,0 -4.29,-23.08 -6,-25 -5.95,-6.67 -60.61,-52.98 -68,-58 z m -203,512 c 0,0 -1.98,11.3 -3,12 -1.87,1.27 -22,5 -22,5 z m -27,-666 c -0.92,-0.97 -10.66,-5.9 -12,-6 -4.09,-0.31 -37.42,-0.01 -41,2 -1.83,1.03 -1.31,19.36 0,21 1.6,2 24,9 24,9 0,0 -18.88,15.55 -20,18 -0.73,1.59 4,17 4,17 0,0 35.59,-22.79 39,-26 1.82,-1.72 11.58,-19.53 12,-22 0.24,-1.41 -5.02,-11.96 -6,-13 z m -7,-88 c -1.53,1.24 -10.58,15.12 -10,17 0.67,2.15 16.78,12.36 19,12 2.05,-0.33 11.86,-14.92 12,-17 0.11,-1.56 -8.64,-11.23 -10,-12 -0.96,-0.55 -10.15,-0.69 -11,0 z m -587,-202 c -1.78,-1.13 -19.22,0.87 -21,2 -3.22,2.06 -23.98,24.76 -26,28 -0.9,1.45 -2,17 -2,17 0,0 24.8,-18.74 28,-20 1.04,-0.41 9.42,4.04 10,5 0.78,1.3 2.38,13.54 2,15 -1.25,4.78 -15.42,41.79 -18,46 -4.28,6.99 -46.05,57.81 -50,65 -0.78,1.42 4.49,14.44 6,15 2.72,1.01 26.24,-1.1 29,-2 2.32,-0.76 18.56,-12.03 20,-14 3.47,-4.78 26.17,-46.38 28,-52 2.42,-7.44 14.45,-69.19 14,-77 -0.2,-3.44 -17.09,-26.16 -20,-28 z m 122,-4 c -2.48,-0.67 -23.11,4.26 -25,6 -4.54,4.17 -32.79,44.74 -36,50 -0.47,0.77 0,9 0,9 0,0 12.03,0.86 13,0 2.95,-2.62 20.13,-29.3 23,-32 0.73,-0.69 9.4,0.2 10,1 0.91,1.21 2.32,13.52 2,15 -1.11,5.13 -13.39,45.45 -16,50 -1.83,3.19 -23.82,23.15 -27,25 -2.98,1.74 -30.36,7.79 -33,10 -1.64,1.37 -4.76,19 -4,21 0.85,2.25 15.59,16 18,16 3.85,0 32.22,-13.34 35,-16 4.77,-4.57 34.96,-48.14 38,-54 2.42,-4.66 15.15,-44.82 16,-50 0.57,-3.46 -1.07,-31.62 -2,-35 -0.53,-1.93 -10.07,-15.48 -12,-16 z m -533,-60 c 0,0 -2.8,28 -2,31 0.43,1.58 13,10 13,10 0,0 2.55,-18.96 2,-21 -0.62,-2.3 -13,-20 -13,-20 z m 28,-124 c 0,0 -9.75,26.85 -10,30 -0.56,6.88 1.26,62.14 2,69 0.27,2.52 6.58,21.91 8,24 0.66,0.97 11,4 11,4 0,0 -2.94,-110.74 -4,-123 -0.07,-0.8 -7,-4 -7,-4 z m 668,-24 c 0,0 1.09,10.35 2,11 1.58,1.13 19,4 19,4 z m -118,-96 c 0,0 21,7 21,7 0,0 -3.24,-6.75 -4,-7 -1.61,-0.54 -17,0 -17,0 z m 1825,90 c 0,0 -25.55,71.32 -29,79 -0.99,2.21 -12.98,17.67 -15,19 -3.74,2.47 -37.99,14.68 -41,18 -1.68,1.86 2,25 2,25 0,0 22,-5 22,-5 0,0 -15.65,44.34 -18,49 -6.08,12.08 -58.83,106.53 -66,118 -6.85,10.96 -66.1,95.77 -74,106 -5.02,6.5 -48.93,55.46 -55,61 -5.49,5.02 -53.74,39.97 -60,44 -5.57,3.59 -51.56,30.46 -58,32 -5.75,1.38 -53.16,-4.96 -59,-4 -2.1,0.34 -13.26,14.01 -14,16 -0.41,1.1 3.07,10.29 4,11 3.06,2.33 30.18,17.57 34,18 5.52,0.62 49.64,-6.52 55,-8 3.45,-0.95 28.42,-16.11 32,-16 4.02,0.12 32.92,15.4 36,18 8.54,7.2 71.95,70.33 79,79 4.35,5.35 31.29,53.66 34,60 6.12,14.32 50.6,130.81 54,146 1.79,8.01 2.33,75.76 -3,82 -8.77,10.27 -107.71,56.39 -120,62 -4.86,2.22 -51,16 -51,16 0,0 2.17,-16.37 3,-18 2.52,-4.97 28.29,-41.69 30,-47 2,-6.21 6.71,-58.51 6,-65 -0.33,-3.03 -13.45,-24.32 -16,-26 -2.9,-1.91 -32.29,-3.98 -34,-7 -3.52,-6.24 -8.38,-64.02 -10,-71 -2.59,-11.16 -28.2,-99.19 -32,-110 -1.42,-4.05 -17.59,-34.45 -20,-38 -1.04,-1.52 -12.31,-11.26 -14,-12 -0.85,-0.37 -8.45,1.26 -9,2 -0.78,1.06 -2.48,11.78 -2,13 3.79,9.56 40.64,83.27 44,93 3.48,10.09 22.95,93.38 24,104 1.37,13.83 0.78,125.12 0,139 -0.22,3.92 -7.88,34.69 -10,38 -1.99,3.12 -25.67,21.38 -29,23 -1.11,0.54 -11.36,-1.94 -12,-3 -0.87,-1.46 -0.36,-15.34 0,-17 1.05,-4.79 13.32,-42.14 14,-47 0.73,-5.25 -0.54,-47.73 0,-53 0.27,-2.61 8,-22.38 8,-25 0,-11.53 -5.59,-103.73 -8,-115 -2.24,-10.46 -33.63,-90.24 -38,-100 -4.64,-10.37 -48.84,-90.09 -52,-101 -3.95,-13.65 -15.29,-127.05 -18,-141 -3.5,-18 -38.25,-160.59 -44,-178 -1.92,-5.8 -27.38,-48.01 -32,-52 -5.38,-4.65 -60,-25.12 -64,-31 -6.26,-9.18 -25.63,-96.78 -30,-107 -1.95,-4.57 -28.22,-34.78 -32,-38 -3.13,-2.67 -32.02,-18.94 -36,-20 -7.5,-1.99 -69.24,-10.19 -77,-10 -8.51,0.21 -75.88,16.57 -84,14 -11.1,-3.51 -83.11,-63.85 -93,-70 -9.49,-5.9 -89.52,-46.1 -100,-50 -17.02,-6.34 -156.36,-47.66 -174,-52 -6.84,-1.68 -62.96,-7.81 -70,-8 -23.29,-0.61 -209.76,-1.66 -233,0 -16.2,1.15 -143.76,28.13 -160,28 -9.96,-0.08 -85.3,-27.73 -95,-30 -9.16,-2.14 -83.6,-14.29 -93,-14 -4.02,0.12 -33.24,15.07 -36,18 -2.68,2.84 -11.91,33.62 -15,36 -2.3,1.78 -26.22,-1.15 -29,-2 -7.12,-2.18 -61.76,-26.24 -69,-28 -7.72,-1.88 -71.09,-8.71 -79,-8 -3.66,0.33 -29.29,15.53 -32,18 -3.12,2.84 -20.94,32.86 -25,34 -9.92,2.79 -92.81,0.46 -103,2 -2.24,0.34 -14.96,13.99 -16,16 -1.73,3.34 -7.39,34.92 -11,36 -10.44,3.13 -98.2,-1.48 -109,0 -17.06,2.34 -151.56,32.86 -168,38 -4.9,1.53 -38.38,25.78 -43,28 -5.84,2.81 -55.25,18.99 -61,22 -5.07,2.65 -41.86,30.06 -46,34 -4.32,4.11 -34.93,40.88 -38,46 -4.19,6.98 -32.1,66.08 -34,74 -2.36,9.85 -8.4,90.88 -8,101 0.21,5.38 11.66,47.15 14,52 3.13,6.5 35.2,54.61 40,60 6.68,7.5 65.9,62.04 74,68 9.39,6.91 89.5,54.92 100,60 10.69,5.17 100.22,37.04 111,42 1.8,0.83 12.79,13.03 13,15 0.35,3.38 -8.26,29.61 -8,33 0.36,4.79 17.36,42.56 14,46 -7.49,7.66 -88.82,37.65 -99,41 -11.47,3.77 -105.75,25.62 -117,30 -4.44,1.73 -32.91,27.57 -37,30 -3.4,2.02 -33.51,12.14 -37,14 -2.58,1.37 -20.1,17.68 -23,18 -8.67,0.95 -78.37,-7.25 -87,-6 -8.36,1.21 -70.69,28.46 -79,30 -8.16,1.51 -74.76,-1.01 -83,0 -5.02,0.61 -43.72,13.29 -48,16 -5.74,3.63 -45.73,40.72 -50,46 -2.65,3.27 -16.84,33.96 -18,38 -0.69,2.4 1.54,23.03 0,25 -2.57,3.28 -32.95,18.16 -36,21 -4.48,4.18 -34.66,42.87 -38,48 -2.69,4.12 -21.15,39.15 -22,44 -1.61,9.16 -3.69,83.85 -2,93 1.01,5.46 24.69,43.54 28,48 1.94,2.61 21.12,20.47 24,22 2.24,1.19 22.73,5.12 25,4 4.83,-2.38 40,-36 40,-36 0,0 4,34.3 5,38 0.91,3.37 11.92,29.2 14,32 3.8,5.11 39,42.06 44,46 1.35,1.06 15.32,2.31 17,2 1.76,-0.32 14.65,-6.83 16,-8 1.72,-1.49 13.48,-15.78 14,-18 1.15,-4.97 2.64,-45.94 2,-51 -0.77,-6.06 -15.63,-52.9 -16,-59 -0.16,-2.64 11,-24 11,-24 0,0 2.77,43.34 4,48 1.6,6.07 20.14,53.05 24,58 2.87,3.68 35.51,22.73 40,24 7.07,2 65.68,8.6 73,8 2.87,-0.24 22.59,-13.48 24,-16 1.32,-2.36 0.76,-24.41 0,-27 -2.28,-7.75 -28.1,-67.15 -30,-75 -1.34,-5.54 -2.58,-51.33 -2,-57 0.15,-1.41 7.65,-10.56 9,-11 8.49,-2.74 78.48,-17.34 87,-20 30.01,-9.35 268.55,-89 298,-100 11.31,-4.23 97.53,-48.23 109,-52 2.26,-0.74 22,9 22,9 0,0 -31.17,75.35 -36,83 -11.65,18.48 -115.63,159 -128,177 -3.04,4.43 -22.91,42.61 -26,47 -2.16,3.07 -23.9,23.9 -26,27 -11.54,17.05 -99.98,156.02 -110,174 -2.65,4.75 -15.28,46.61 -16,52 -0.89,6.64 -1.11,60.39 0,67 0.73,4.33 15.61,36.32 18,40 2.27,3.51 25.71,27.5 28,31 1.2,1.83 7.67,19.59 6,21 -7.27,6.16 -76.26,39.45 -84,45 -6.21,4.45 -49.22,48.05 -54,54 -3.48,4.33 -25.68,42.95 -28,48 -2.11,4.6 -14.79,43.09 -16,48 -1.8,7.31 -13.11,66.52 -14,74 -0.51,4.27 -0.64,38.75 0,43 1.77,11.71 19.54,105.02 24,116 3.71,9.12 51.28,72.36 56,81 4.94,9.05 34.83,86.08 40,95 4.32,7.44 49.75,59.52 54,67 4.26,7.51 29.27,72.39 30,81 0.28,3.25 -18.46,22.95 -21,25 -11.72,9.49 -109.39,80.38 -121,90 -5.34,4.42 -44,44.34 -48,50 -5.27,7.45 -40.45,71.59 -44,80 -2.49,5.9 -14.89,55.69 -16,62 -0.5,2.86 -0.81,26.22 0,29 0.85,2.93 13.75,23.94 16,26 2.71,2.48 28.33,17.95 32,18 12.01,0.16 107.36,-13.04 119,-16 6.68,-1.7 55.54,-32.38 62,-30 7.45,2.75 35.71,62.08 41,68 5.79,6.48 59.94,50.78 68,54 31.36,12.54 289.42,93.08 322,102 6.28,1.72 58.94,6.38 65,4 4.26,-1.68 20.84,-35.69 24,-39 3.47,-3.63 35.98,-28.76 41,-29 11.01,-0.52 97.1,20.34 108,22 2.28,0.35 23,-2 23,-2 0,0 -8.22,-17.8 -10,-19 -7.08,-4.78 -76,-39 -76,-39 0,0 29.27,-41.11 32,-46 0.74,-1.32 2,-15 2,-15 0,0 -15.62,2.93 -17,4 -4.98,3.85 -39.79,40.48 -45,44 -2.45,1.66 -26.06,6.34 -29,6 -7.56,-0.88 -66.72,-15.75 -74,-18 -0.95,-0.29 -7.12,-6.02 -7,-7 0.25,-2.04 9.7,-15.96 10,-18 0.16,-1.07 -4.92,-9.11 -6,-9 -4.5,0.46 -38.5,14.44 -43,14 -6.34,-0.62 -52.88,-22.24 -59,-24 -20.42,-5.86 -185.08,-48.28 -206,-52 -12.42,-2.21 -114.96,-0.88 -126,-7 -6.84,-3.79 -20.88,-67.26 -22,-75 -0.33,-2.32 6.71,-20.05 8,-22 3.06,-4.62 30.69,-39.51 35,-43 5.36,-4.34 53.32,-32.28 60,-34 23.12,-5.96 211.77,-36.48 235,-42 3.19,-0.76 24.22,-17.24 26,-20 0.68,-1.05 -4.75,-11.06 -6,-11 -6.15,0.28 -53.91,13.09 -60,14 -10.04,1.5 -91.07,7.92 -101,10 -13.07,2.74 -115.49,33.33 -128,38 -4.21,1.57 -34.74,20.91 -38,24 -4.44,4.21 -34.96,42.68 -38,48 -2.64,4.61 -16.79,44.83 -18,50 -0.61,2.63 1.96,25.15 0,27 -4.39,4.15 -49.28,23.06 -55,25 -6.43,2.18 -59.28,15.03 -66,16 -4.45,0.64 -40.67,1.21 -45,0 -2.87,-0.8 -21.41,-16.48 -23,-19 -1.48,-2.34 -6.53,-24.28 -6,-27 1.33,-6.89 20.71,-59.8 24,-66 3.57,-6.71 38.38,-56.88 44,-62 11.57,-10.55 113.97,-82.97 126,-93 5.44,-4.53 44.21,-46.03 48,-52 1.8,-2.83 6.82,-29.75 6,-33 -2.28,-9.04 -36,-86 -36,-86 0,0 45.15,-11.21 50,-13 5.2,-1.92 45.26,-21.12 50,-24 9.1,-5.54 79.52,-53.55 88,-60 7.85,-5.97 66.27,-59.41 75,-64 2.26,-1.19 20.34,11.06 22,13 8.45,9.88 73.8,91.7 78,104 3.46,10.14 -7.17,96.35 -6,107 1.07,9.75 24.34,84.9 28,94 0.34,0.86 9.02,-1.08 9,-2 -0.3,-14.75 -11.66,-132.25 -12,-147 -0.07,-2.91 6.67,-25.41 8,-28 0.93,-1.83 13.7,-12.97 14,-15 0.39,-2.69 -7.75,-23.29 -8,-26 -0.36,-3.89 0.79,-35.29 2,-39 2.85,-8.77 33.82,-75.78 38,-84 2.24,-4.4 22.74,-38.29 26,-42 6.91,-7.86 66.33,-67.14 75,-73 11.57,-7.81 112.85,-55.15 125,-62 2.84,-1.6 22.03,-19.41 24,-22 0.44,-0.58 -2,-7 -2,-7 0,0 -94.58,42.91 -106,44 -10.53,1.01 -92.86,-21 -103,-24 -3.43,-1.02 -29.25,-13.71 -32,-16 -2.69,-2.24 -18.01,-26.19 -21,-28 -12.47,-7.55 -118.65,-56.25 -131,-64 -5.87,-3.68 -45.35,-43.11 -49,-49 -4.82,-7.78 -34,-85 -34,-85 0,0 -10.69,6.68 -11,8 -0.89,3.8 -0.62,35.15 0,39 0.79,4.94 14,48 14,48 0,0 -11,3.73 -12,3 -10.29,-7.55 -88.5,-73.47 -97,-83 -2.55,-2.86 -9.93,-33.17 -10,-37 -0.14,-7.84 6.24,-70.36 8,-78 2.27,-9.86 27.89,-86.75 32,-96 4.73,-10.63 49.74,-92.19 56,-102 8.37,-13.13 81.87,-113.73 90,-127 11.5,-18.78 94.93,-173.97 106,-193 1.07,-1.83 12.91,-14.64 15,-15 8.38,-1.42 85,-2 85,-2 0,0 -12.2,-12.35 -14,-13 -3.13,-1.13 -29.92,-2.76 -33,-4 -2.36,-0.95 -17.86,-14.72 -19,-17 -0.77,-1.53 1.23,-15.47 2,-17 1.6,-3.2 17.61,-27.86 21,-29 5.59,-1.89 59,2 59,2 0,0 -4.98,-10.27 -6,-11 -3.31,-2.37 -33.35,-15.91 -36,-19 -1.5,-1.75 -0.63,-20.79 0,-23 0.26,-0.91 7.12,-5.33 8,-5 4.61,1.72 38.33,22.44 43,24 2.75,0.92 26.15,0.53 29,0 1.59,-0.29 13.07,-6.68 14,-8 0.53,-0.75 -1.16,-8.62 -2,-9 -5.04,-2.29 -48.18,-13.27 -53,-16 -3.09,-1.75 -22.96,-23.45 -23,-27 -0.08,-7.05 15.81,-63.62 22,-67 9.3,-5.09 95.45,-1.89 106,-3 7.53,-0.79 67.2,-12.67 74,-16 7.09,-3.46 54.11,-46.16 61,-50 5.56,-3.1 55.38,-15.02 61,-18 4.82,-2.55 36.29,-33.25 41,-36 6.04,-3.53 58.9,-22.57 65,-26 2.96,-1.66 22.12,-21.18 24,-24 3.77,-5.66 29.38,-53.72 32,-60 4.4,-10.57 35.06,-96.93 38,-108 3.88,-14.59 28.75,-132.95 30,-148 1.76,-21.23 0.84,-191.72 0,-213 -0.16,-4.12 -8.49,-36.16 -10,-40 -1.51,-3.83 -17.68,-32.6 -20,-36 -0.72,-1.06 -8.72,-7.89 -10,-8 -1.43,-0.12 -11.62,6.37 -13,6 -4.92,-1.33 -42.15,-18.65 -46,-22 -3.35,-2.91 -19.86,-34.86 -23,-38 -2.09,-2.09 -24.58,-10.31 -27,-12 -1.03,-0.72 -6,-11 -6,-11 0,0 31.55,-0.58 35,0 15.51,2.63 138.76,28.12 154,32 7.6,1.93 67.42,21.73 74,26 6.88,4.47 52.84,51.93 57,59 1.59,2.69 -5.66,28.35 -4,31 2.91,4.66 40.85,28.49 44,33 4.52,6.47 26.29,66.03 30,73 0.55,1.03 9.85,4.24 11,4 1.11,-0.23 8,-8 8,-8 0,0 8.56,9.65 9,11 1,3.08 5,32 5,32 0,0 -84.42,-25.89 -94,-28 -1.52,-0.33 -13.84,2.97 -15,4 -1.74,1.55 -11.5,17.72 -12,20 -7.93,36.25 -66.33,327.33 -72,364 -0.59,3.79 7.83,33.84 10,37 2.27,3.29 28.47,22.12 32,24 2.57,1.37 25.1,7.74 28,8 6.08,0.55 55.01,1.13 61,0 2.83,-0.53 21.89,-14.03 24,-16 0.98,-0.92 6,-10.66 6,-12 0,-1.8 -4.2,-16.9 -6,-17 -4.9,-0.28 -42.12,14.5 -47,14 -7.43,-0.76 -63.31,-22.69 -70,-26 -1.78,-0.88 -12.67,-13.04 -13,-15 -1.04,-6.21 -1.12,-56.8 0,-63 2.7,-14.94 35,-132.12 38,-147 2.41,-11.96 13.72,-109.01 16,-121 0.54,-2.81 10.08,-23.87 12,-26 1.12,-1.24 14.37,-5.38 16,-5 9.43,2.18 83.05,26.33 92,30 1.7,0.7 12.56,11.21 13,13 2.74,11.21 17.45,102.47 18,114 0.46,9.72 -6.51,87.38 -8,97 -1.52,9.83 -20.39,87.19 -22,97 -0.6,3.65 1.55,33.64 0,37 -3.26,7.09 -42.61,55.98 -46,63 -3.71,7.69 -22.86,73.53 -24,82 -0.89,6.65 4,67 4,67 0,0 10.54,-8.59 11,-10 1.92,-5.91 10.24,-55.04 12,-61 1.65,-5.59 19,-49 22,-54 5.45,-9.09 54.96,-78.07 62,-86 4.16,-4.68 43.54,-35.93 49,-39 5.18,-2.91 50.08,-19.4 56,-20 6.32,-0.64 57.19,5.44 63,8 6.25,2.75 48.37,37.99 53,43 5.16,5.58 40.54,55.23 44,62 3.71,7.27 27,77 27,77 0,0 2.62,-42.34 2,-47 -0.6,-4.58 -11.79,-39.95 -14,-44 -3.85,-7.06 -40.46,-60.17 -46,-66 -6.18,-6.5 -61.69,-52.63 -70,-56 -6.77,-2.74 -65.77,-3.04 -73,-2 -5.51,0.79 -47.23,17.13 -52,20 -5.66,3.41 -45.54,38.28 -51,42 -0.99,0.68 -11.26,1.95 -12,1 -1.17,-1.51 -2.43,-17.14 -2,-19 2.4,-10.46 28.21,-92.42 30,-103 1.64,-9.67 4.59,-88.21 4,-98 -0.82,-13.59 -18,-135 -18,-135 0,0 10.33,1.1 11,2 1.87,2.52 9.71,26.86 12,29 1.32,1.23 16.75,-2.3 18,-1 2.2,2.27 9.87,26.84 10,30 0.68,17.09 -2,171 -2,171 0,0 10.72,-4.78 11,-6 2.53,-11.23 16,-102.49 16,-114 0,-9.44 -13.41,-83.93 -16,-93 -1.65,-5.76 -22.21,-49.36 -26,-54 -8.36,-10.24 -85.69,-82.72 -94,-93 -7.79,-9.65 -58.47,-95.15 -66,-105 -4.55,-5.96 -47.97,-47.54 -54,-52 -1.54,-1.14 -17.25,-1.23 -19,-2 -7.45,-3.28 -65.1,-33.68 -72,-38 -3.85,-2.41 -32.4,-25.27 -35,-29 -0.85,-1.22 3.55,-13.69 5,-14 13.39,-2.85 122.31,-15.68 136,-16 21.11,-0.49 189.99,5.87 211,8 10.62,1.08 93.83,20.75 104,24 13.69,4.37 121.01,45.85 134,52 9.89,4.68 85,49.78 94,56 8.54,5.91 73.66,57.66 81,65 2.15,2.15 11.41,25.01 12,28 0.64,3.24 0.53,29.74 0,33 -1.08,6.7 -13.9,59.54 -16,66 -1.72,5.28 -20.33,45.7 -22,51 -0.57,1.81 0,19 0,19 0,0 19.64,-13.74 21,-16 3.47,-5.76 24.02,-55.57 26,-62 2.04,-6.64 13.48,-61.08 14,-68 0.29,-3.93 -6.29,-35.06 -6,-39 0.07,-0.92 8.4,-2.7 9,-2 6.04,7.1 49.74,67.71 54,76 1.7,3.31 5.4,33.55 4,37 -2.36,5.8 -34.27,44.9 -39,49 -5.22,4.53 -54.3,30.93 -59,36 -1.4,1.51 8,19 8,19 0,0 61.05,-27.56 67,-32 5.29,-3.94 37.97,-45.73 43,-50 0.85,-0.72 9.43,4.04 10,5 3.53,5.91 27.43,55.61 30,62 5.44,13.53 50,137 50,137 0,0 -29.63,-6.96 -33,-7 -4.34,-0.06 -38.75,6.87 -43,6 -4.05,-0.83 -30.98,-21.02 -35,-22 -5.34,-1.31 -49.52,-0.48 -55,0 -1.52,0.13 -12.89,4.96 -14,6 -1.99,1.86 -15.09,19.44 -16,22 -2.14,5.99 -13.63,55.65 -14,62 -0.24,4.07 7.71,35.93 8,40 0.52,7.28 -1.53,65.86 0,73 1.54,7.18 28.68,59.78 30,67 1.75,9.54 0.69,87.32 0,97 -0.12,1.7 -8.02,13.3 -8,15 0.19,18.73 7.36,168.46 10,187 0.62,4.35 19.01,34.78 22,38 1.19,1.28 15.27,4.21 17,4 1.78,-0.22 14.69,-6.78 16,-8 3.27,-3.05 24.91,-32.19 29,-34 5.23,-2.31 51.47,-2.56 57,-4 7.73,-2.01 67.38,-25.54 74,-30 4.15,-2.79 28.66,-35.18 30,-40 2.4,-8.59 6.61,-80.1 6,-89 -0.4,-5.91 -15.13,-51.14 -16,-57 -0.75,-5.04 0.64,-45.94 0,-51 -0.77,-6.02 -13.37,-52.97 -14,-59 -1.28,-12.34 -5,-124 -5,-124 0,0 14.91,9.4 16,11 2.22,3.26 14.95,32.2 16,36 3.77,13.66 29.94,123.98 32,138 1.35,9.2 2.43,83.71 2,93 -0.37,7.86 -8.24,70.34 -10,78 -2.85,12.4 -36,122 -36,122 0,0 14.15,-0.75 15,-2 3.98,-5.84 28.17,-57.17 30,-64 3.62,-13.53 23.26,-124.01 24,-138 0.67,-12.52 -7.81,-112.65 -10,-125 -2.43,-13.66 -30.96,-121.07 -36,-134 -4.42,-11.34 -53.17,-95.83 -58,-107 -6.01,-13.91 -44.35,-128.94 -50,-143 -2.17,-5.4 -26.27,-45.45 -28,-51 -0.4,-1.28 7.72,-9.59 9,-10 3.95,-1.26 37.54,-8.27 41,-6 4.45,2.92 20.18,43.49 23,48 0.37,0.59 6.79,0.67 7,0 0.86,-2.78 1.14,-26.22 2,-29 0.5,-1.63 9.31,-13.18 11,-13 4.76,0.52 41.69,14.8 44,19 7.71,14.02 46.35,136.42 50,152 5.18,22.12 35.35,201.43 38,224 2.36,20.1 11.46,181.77 12,202 0.26,9.5 -2.24,85.66 -4,95 -1.28,6.79 -22.54,58.02 -26,64 -0.75,1.29 -14,5 -14,5 0,0 -5.73,-18.3 -7,-20 -0.7,-0.94 -10.15,-4.81 -11,-4 -1.88,1.79 -10.12,21.4 -10,24 0.3,6.74 13.28,59.29 14,66 1.69,15.74 9.82,142.17 10,158 0.02,2.15 -7.77,17.86 -8,20 -1.58,14.85 -8.22,134.17 -10,149 -0.15,1.26 -7.75,8.74 -9,9 -1.09,0.23 -9.9,-3.89 -10,-5 -1.95,-21.03 -10,-211 -10,-211 0,0 -14.09,2.74 -15,4 -1.7,2.36 -7.82,25.09 -8,28 -0.62,9.88 0.69,89.12 0,99 -0.12,1.7 -7.81,13.31 -8,15 -1.43,12.85 -6.23,116.2 -8,129 -2.04,14.76 -25.59,131.76 -30,146 -2.65,8.54 -34.8,72.73 -40,80 -4.73,6.61 -52.81,50.74 -58,57 -0.83,1 -0.61,11.85 0,13 0.46,0.87 8.2,4.57 9,4 5.83,-4.14 47.09,-43.97 53,-48 0.92,-0.63 9.76,3.91 10,5 2.66,12.04 16.7,109.74 18,122 0.31,2.89 -1.05,26.25 -2,29 -2.1,6.09 -24.45,52.63 -28,58 -3.91,5.92 -40.95,49.02 -46,54 -8.68,8.55 -80.84,74.27 -91,81 -11.93,7.9 -114.19,60.23 -128,64 -24.01,6.55 -221.31,34.8 -246,38 -6.25,0.81 -56.71,2.44 -63,2 -1.14,-0.08 -8.77,-5.88 -9,-7 -0.27,-1.27 4.05,-11.12 5,-12 4.55,-4.21 44.36,-33.89 49,-38 1.5,-1.33 11.37,-14.1 12,-16 0.22,-0.67 -4.38,-5.33 -5,-5 -8.64,4.61 -74.37,47.36 -83,52 -8.51,4.58 -78.68,37.44 -88,40 -11.29,3.1 -104.3,15.56 -116,16 -9.53,0.36 -85.5,-8.76 -95,-8 -10.83,0.86 -95.88,20.04 -106,24 -12.09,4.72 -102.96,55.18 -114,62 -5.51,3.41 -44.74,41.69 -51,40 -16.34,-4.4 -127.11,-83.97 -142,-92 -8.24,-4.44 -78.77,-30.44 -88,-32 -9.96,-1.69 -90.96,-1.09 -101,0 -4.84,0.53 -41.67,13.77 -46,16 -2.01,1.04 -15.13,13.91 -16,16 -0.52,1.26 2.64,13.06 4,13 6.59,-0.29 57.41,-15.69 64,-16 10.52,-0.5 94.67,5.97 105,8 7.14,1.4 61.58,22.56 68,26 9.17,4.91 79.88,49.42 87,57 1.84,1.96 -8.49,22.77 -10,25 -6.13,9.04 -59.98,77.89 -66,87 -1.64,2.48 -9.53,25.06 -10,28 -0.55,3.46 -0.6,31.55 0,35 0.42,2.38 8.16,20.43 10,22 3.13,2.67 32.9,17.71 37,18 2.35,0.17 16.78,-13.21 19,-14 1.17,-0.41 12.03,1.76 12,3 -0.39,15.98 -16.86,143.04 -16,159 0.57,10.52 28.01,90.65 30,101 2.03,10.55 9.5,96.26 10,107 0.1,2.23 -3.02,19.99 -4,22 -1.58,3.22 -18.28,26.67 -21,29 -4.5,3.87 -44.68,29.37 -50,32 -3.66,1.81 -35.82,9.44 -39,12 -1.64,1.32 -2.56,18.97 -2,21 0.34,1.23 8.72,7.95 10,8 4.14,0.16 37.11,-4.58 41,-6 3.96,-1.44 33.09,-18.94 36,-22 5.05,-5.31 40.25,-52.89 42,-60 2.65,-10.78 1.45,-100 0,-111 -1.97,-14.96 -32.99,-131.95 -34,-147 -1.02,-15.13 11.72,-136.01 14,-151 1.33,-8.78 19.3,-77.54 22,-86 1.72,-5.38 18.62,-47.47 22,-52 1.9,-2.55 26.09,-12.46 28,-15 1.5,-2.01 0.92,-22.73 2,-25 0.97,-2.05 15.05,-13.84 17,-15 12.39,-7.36 112.66,-64.55 126,-70 9.88,-4.04 93.36,-23.19 104,-24 13.28,-1.01 119.69,6.14 133,6 5.85,-0.06 52.46,-6.1 58,-8 11.51,-3.95 98.97,-48.12 111,-50 4.05,-0.63 26.03,26.96 30,28 7.45,1.95 69.34,0.79 77,0 21.5,-2.22 192.72,-26.26 214,-30 4.98,-0.87 43.53,-13.62 48,-16 14.02,-7.47 123.27,-72.51 136,-82 8.62,-6.42 68.8,-68.02 76,-76 5.82,-6.45 49.1,-60.83 54,-68 3.33,-4.88 26.2,-46.37 28,-52 1.28,-4.01 2,-37.8 2,-42 0,-5.7 -1.13,-51.36 -2,-57 -0.94,-6.04 -15.18,-52.94 -16,-59 -0.79,-5.85 -1.91,-53.42 0,-59 3.45,-10.08 47.44,-83.37 52,-93 2.67,-5.63 16.82,-53.65 20,-59 1.45,-2.43 22.2,-12.82 24,-15 2.17,-2.62 11.88,-28.34 14,-31 4.37,-5.47 45.64,-43.52 50,-49 2.34,-2.94 14.98,-30.38 16,-34 2,-7.06 13.77,-64.67 14,-72 0.58,-18.5 -6.66,-166.5 -6,-185 0.06,-1.7 11.31,-10.77 13,-11 2.35,-0.33 20.65,6.34 23,6 2.22,-0.32 16.83,-11.43 19,-12 6.36,-1.67 58.67,-8.22 65,-10 8.65,-2.44 75.79,-28.33 84,-32 10.62,-4.74 93.96,-46.14 104,-52 13.99,-8.16 123.8,-77.35 136,-88 13.24,-11.56 105.07,-118.24 116,-132 9.9,-12.47 84.91,-115.74 92,-130 12.84,-25.8 96.78,-240.7 106,-268 3.42,-10.13 20.83,-94.34 20,-105 -0.24,-3.06 -29,-10 -29,-10 0,0 9.69,28.66 10,32 0.31,3.31 -2.8,29.9 -4,33 -6.25,16.21 -63.6,142.85 -70,159 -1.63,4.1 -8.28,38.94 -10,43 -4.71,11.12 -47.2,98.02 -54,108 -14.69,21.55 -143.65,185.67 -160,206 -2.57,3.2 -25.76,26.49 -29,29 -7.5,5.81 -69.69,49.41 -78,54 -1.58,0.87 -17.42,0.71 -18,-1 -3.43,-10.09 -15.27,-94.7 -18,-105 -3.09,-11.68 -34.68,-103.15 -40,-114 -5.55,-11.3 -60,-96.27 -68,-106 -4.65,-5.66 -51.66,-40.99 -57,-46 -1.14,-1.07 -7.99,-12.79 -7,-14 4.98,-6.1 54.93,-44.98 60,-51 11.63,-13.8 96.16,-130.88 106,-146 6.2,-9.53 49.21,-89.7 54,-100 5.22,-11.23 40.33,-103.99 46,-115 1.18,-2.29 18.51,-14.33 21,-15 3.38,-0.91 31.54,-0.5 35,0 7.69,1.11 76,16 76,16 0,0 -26.18,-25.68 -30,-27 -8.22,-2.84 -86,-13 -86,-13 0,0 8.08,-39.03 10,-43 1.2,-2.48 19.46,-16.29 20,-19 0.47,-2.37 -12,-21 -12,-21 z M 1029,3861 c 0,0 7.54,-13.19 9,-14 5.26,-2.92 50.2,-20.39 56,-22 2.22,-0.62 20.8,-0.68 23,0 7.33,2.26 71,29 71,29 0,0 -13.07,14.96 -15,16 -4.91,2.64 -46.58,18.7 -52,20 -2.24,0.54 -20.8,-1.31 -23,-2 -7.07,-2.23 -69,-27 -69,-27 z m -106,-38 c 0,0 16.65,-23.8 19,-26 2.63,-2.47 26.4,-20.17 30,-20 8.18,0.38 78,25 78,25 0,0 -20.32,16.85 -23,18 -3.08,1.32 -30.3,4.01 -33,6 -1.82,1.34 -5,22 -5,22 0,0 -42.46,-10.28 -47,-12 -2.15,-0.82 -19,-13 -19,-13 z m -170,-83 c 0,0 79.28,-0.18 88,1 8.41,1.14 74.03,19.07 82,22 1.05,0.39 5.4,8.96 5,10 -0.61,1.59 -11.42,10.37 -13,11 -6.32,2.51 -58.2,20.22 -65,20 -6.09,-0.2 -50.55,-21.28 -56,-24 -2.58,-1.29 -21.94,-13.99 -24,-16 -2.11,-2.05 -17,-24 -17,-24 z m 720,-457 c 1.29,1.07 5.44,14.38 5,16 -3.74,13.86 -38.12,124 -46,136 -2.42,3.68 -40.03,2.9 -44,1 -3.63,-1.73 -22.15,-29.07 -23,-33 -0.61,-2.81 8.32,-24.66 10,-27 7.29,-10.16 69.93,-88.39 79,-97 1.41,-1.34 17.51,2.76 19,4 z M 984,2913 c 5.29,-0.56 47.88,2.58 53,4 4.48,1.24 36.66,20.32 41,22 10.41,4.04 95.79,30.48 106,35 1.02,0.45 -1.3,10.12 -2,11 -5.6,7.04 -55.17,59.42 -60,67 -7.57,11.88 -63,126 -63,126 0,0 -18.56,-12.96 -20,-15 -8.44,-11.97 -72.88,-110.28 -78,-124 -2.97,-7.96 -0.74,-76.53 0,-85 0.27,-3.15 8.45,-27.24 10,-30 0.83,-1.49 11.31,-10.82 13,-11 z m 89,-25 c 0,0 9.07,-3.48 10,-3 1.95,1.01 15,16 15,16 z M 713,2641 c 6.6,0.79 42.78,41.86 47,47 2.73,3.33 18.46,34.55 22,37 3.6,2.49 38.92,6.43 43,8 4.35,1.68 36.46,20.96 40,24 4.25,3.64 32.34,38.9 37,42 5.82,3.88 59.05,22.3 65,26 1.86,1.16 9.24,17.82 9,20 -0.15,1.38 -10.73,7.57 -12,7 -6.25,-2.81 -50.91,-34.86 -57,-38 -9.87,-5.09 -91.37,-40.78 -102,-44 -1.8,-0.54 -15.64,6.7 -17,8 -1.1,1.05 -6,12.48 -6,14 0,1.62 4.63,14.14 6,15 5.95,3.74 59.03,24.03 64,29 2.34,2.34 -2.34,29.71 -2,33 0.09,0.84 5.2,5.72 6,6 9.49,3.25 89.99,20.97 96,29 4.77,6.38 -15.25,70.07 -16,78 -0.65,6.87 1.26,62.14 2,69 0.27,2.52 9.56,22.01 8,24 -7.36,9.35 -79.45,71.9 -89,79 -7.63,5.67 -73.48,43.8 -82,48 -6.13,3.02 -57.32,22.53 -64,24 -4.39,0.97 -40.61,0.98 -45,0 -3.45,-0.77 -28.72,-14.3 -31,-17 -3.47,-4.1 -22.11,-42.98 -24,-48 -0.74,-1.97 -1.09,-19.1 -2,-21 -5.16,-10.83 -53.43,-93.91 -58,-105 -3.7,-8.97 -22.68,-84.39 -24,-94 -1.1,-8.02 -0.77,-72.94 0,-81 0.64,-6.72 11.6,-59.69 14,-66 3.05,-8.03 34.77,-69.19 40,-76 4.24,-5.51 46.99,-41.5 53,-45 7.36,-4.29 70.54,-33.01 79,-32 z m 2062,-330 c 0,0 6.9,9.7 7,11 0.62,8.28 1.95,74.93 0,83 -1.02,4.21 -28,33 -28,33 0,0 3.63,-75.7 5,-84 0.75,-4.53 16,-43 16,-43 z m 268,-448 c 0,0 11.17,17.72 11,20 -0.37,5.05 -13.65,43.52 -16,48 -0.96,1.83 -16,13 -16,13 0,0 3.24,-63.21 5,-70 0.49,-1.88 16,-11 16,-11 z m -428,34 c 0,0 7.94,-37.2 11,-40 2.59,-2.36 31.54,-2.56 35,-2 2.34,0.38 19.28,9.37 21,11 0.65,0.62 0.58,8.31 0,9 -2.29,2.71 -23.63,21.89 -27,23 -3.8,1.25 -40,-1 -40,-1 z m -1809,21 c 0.62,0.93 -4.05,9.41 -5,10 -4.72,2.92 -44.78,22.13 -50,24 -18.22,6.54 -165.37,54.75 -184,60 -9.12,2.57 -83.87,15.48 -93,18 -3.28,0.91 -27.43,13.78 -30,16 -1.97,1.7 -13.13,19.54 -14,22 -0.77,2.18 -2.19,20.7 -2,23 0.41,5.05 6.54,45.15 8,50 1.96,6.53 24.41,56.37 26,63 0.41,1.7 -5.25,16 -7,16 -6.5,0 -57.11,-13.25 -63,-16 -3.59,-1.68 -26.89,-23.65 -29,-27 -2.13,-3.37 -11.56,-34.04 -12,-38 -0.78,-7.06 0.72,-63.94 0,-71 -0.11,-1.13 -6.87,-7.91 -8,-8 -1.8,-0.14 -15.92,4.56 -17,6 -3.65,4.87 -27.49,47.94 -28,54 -0.95,11.35 13.52,101.62 14,113 0.04,1.03 -8.04,5.36 -9,5 -3.75,-1.39 -31.56,-17.84 -34,-21 -3.62,-4.67 -22.46,-48.29 -24,-54 -0.91,-3.38 -0.58,-31.55 0,-35 0.84,-5.03 13.23,-43.96 14,-49 0.44,-2.87 -2,-29 -2,-29 0,0 -17.94,8.13 -19,10 -4.44,7.79 -29.8,75.07 -34,83 -1.19,2.25 -16.62,16.09 -19,17 -1.45,0.55 -13.74,-3.1 -15,-4 -3.45,-2.47 -28.58,-25.51 -31,-29 -2.2,-3.18 -13.37,-32.19 -14,-36 -0.99,-6.02 -2.65,-54.93 -2,-61 0.37,-3.4 10.25,-29.06 12,-32 2.4,-4.04 25.4,-33.98 29,-37 3.36,-2.82 34.86,-21.45 39,-20 5.96,2.09 36.08,44.04 41,48 2.54,2.04 27.9,10.99 31,10 4.73,-1.51 34.78,-28.22 38,-32 3.26,-3.82 22.88,-39.06 26,-43 3.73,-4.71 38.47,-38.13 42,-43 0.88,-1.21 0,-15 0,-15 0,0 -6.47,-0.46 -7,0 -5.32,4.66 -45.45,44.59 -50,50 -3.39,4.03 -25.44,40.12 -29,44 -1.05,1.14 -13.45,4.11 -15,4 -1.52,-0.1 -12.87,-4.98 -14,-6 -3.05,-2.75 -25.27,-27.27 -27,-31 -2.1,-4.54 -11.39,-44.2 -10,-49 1.79,-6.17 34.25,-46.68 39,-51 2.2,-2 25.04,-9.75 28,-10 9.07,-0.76 82.06,1.68 91,0 7.4,-1.39 61.65,-28.38 69,-30 6.54,-1.44 60.38,-1.03 67,0 2.66,0.41 20.33,13.63 23,14 9.01,1.27 82.07,0.26 91,2 10.8,2.11 94.9,29.81 104,36 8.46,5.76 59.28,70.52 65,79 z m 1726,-143 c 0,0 11.3,53.02 12,59 1.21,10.35 7,104 7,104 0,0 -11.3,-1.98 -12,-3 -1.54,-2.24 -7.81,-23.29 -8,-26 -0.61,-8.68 0.59,-78.32 0,-87 -0.21,-3.1 -8.07,-26.9 -8,-30 0.04,-1.92 9,-17 9,-17 z m -1935,-7 c 0,0 42.85,-19.31 48,-19 7.27,0.44 61.87,22.07 68,26 9.19,5.9 75.48,63.08 83,71 1.98,2.09 10,27 10,27 0,0 -57.44,-56.27 -65,-61 -6.65,-4.16 -66.4,-24.06 -74,-26 -5.77,-1.47 -53.23,-6.52 -59,-8 -1.44,-0.37 -11,-10 -11,-10 z m 572,-49 c 0,0 3.76,28.88 3,32 -3.39,13.89 -38.69,122.73 -44,136 -0.62,1.55 -12.46,9.64 -14,9 -3.46,-1.44 -23.68,-24.27 -27,-26 -1.69,-0.88 -17.71,0.59 -19,2 -1.42,1.56 -3.14,19.23 -2,21 2.79,4.35 34.98,30.81 38,35 0.88,1.23 -1.43,13.6 -2,15 -0.76,1.88 -9.21,16.06 -11,17 -2.97,1.55 -31.52,2.99 -33,6 -2.18,4.43 7.95,44.47 6,49 -9.96,23.1 -108.92,198.51 -122,220 -11.35,18.65 -111.07,162.11 -122,181 -5.75,9.93 -40.72,95 -44,106 -2.76,9.23 -13.58,85.67 -16,95 -0.44,1.71 -12,13 -12,13 0,0 -50.02,-58.1 -55,-65 -3.35,-4.65 -26.5,-44.47 -28,-50 -1.59,-5.89 -2.52,-54.92 -2,-61 0.29,-3.34 8.46,-29.02 10,-32 4.89,-9.48 48.05,-83.14 54,-92 23.67,-35.26 219.07,-313.25 242,-349 4.36,-6.8 26.39,-67.78 30,-75 1.63,-3.26 20.69,-25.61 22,-29 1.19,-3.08 1.25,-29.78 2,-33 2.27,-9.74 24.58,-86.6 28,-96 0.29,-0.8 7.25,-3.41 8,-3 3.45,1.86 27.51,22.21 31,24 3.63,1.87 34.97,12.64 39,12 3.22,-0.51 22.92,-18.93 24,-22 1.17,-3.32 -5.31,-31.73 -4,-35 0.77,-1.91 20,-5 20,-5 z m -459,2 c 1.35,-1.35 17.24,-2.75 19,-2 8.81,3.76 75.98,40.77 84,46 2.96,1.93 23.26,21.92 25,25 3.06,5.4 20.57,51.96 22,58 0.81,3.41 0.54,31.54 0,35 -0.38,2.44 -7.22,21.29 -9,23 -1.16,1.11 -16,1 -16,1 0,0 3.06,-51.39 2,-57 -0.62,-3.27 -15.78,-25.52 -18,-28 -4.82,-5.37 -46.29,-45.6 -52,-50 -5.26,-4.05 -52.05,-29.57 -57,-34 -1.27,-1.13 -1.2,-15.8 0,-17 z m 547,-23 c 0,0 10.97,0.38 12,1 0.73,0.44 3,8 3,8 0,0 -9.14,1.52 -10,1 -0.96,-0.58 -5,-10 -5,-10 z m 1638,-45 c 0,0 19.64,20.2 21,23 4.01,8.25 29.76,77.1 32,86 1.99,7.92 9.83,72.84 10,81 0.04,1.7 -7.83,13.31 -8,15 -0.64,6.27 0.68,56.74 0,63 -0.93,8.5 -13.78,75.74 -16,84 -0.33,1.23 -7.82,8.53 -9,9 -1.78,0.7 -17.17,2.54 -19,2 -2.5,-0.73 -19.41,-14.26 -22,-14 -2.53,0.25 -17.88,15.46 -18,18 -1.12,24.28 6.17,218.69 6,243 -0.03,4.67 -6.62,41.54 -8,46 -1.24,4.02 -15.7,34.48 -18,38 -0.97,1.49 -14,11 -14,11 0,0 -5.25,-26.97 -5,-30 0.86,-10.19 15.43,-90.79 16,-101 1.03,-18.47 0.77,-166.52 0,-185 -0.23,-5.49 -11.31,-48.67 -10,-54 0.67,-2.74 23.64,-9.45 26,-11 1.54,-1.01 11.3,-12.3 12,-14 3.14,-7.6 25.37,-69.8 26,-78 1.79,-23.13 -2,-232 -2,-232 z m -1878,12 c 4.58,2.99 17.12,46.53 17,52 -0.19,9.02 -16.18,79.82 -20,88 -1.5,3.22 -30,19 -30,19 0,0 13.09,17.73 14,20 0.56,1.39 0.67,13.66 0,15 -0.76,1.52 -11.34,10.63 -13,11 -3.61,0.79 -33.38,-0.77 -37,0 -6.8,1.45 -59.21,20.47 -66,22 -0.76,0.17 -5.12,-5.23 -5,-6 0.43,-2.85 9.8,-24.13 10,-27 0.42,-6.1 -2.08,-55.2 -4,-61 -1.81,-5.48 -27.8,-44.04 -32,-48 -4.8,-4.53 -51.49,-30.17 -56,-35 -1.71,-1.83 -2.09,-23.63 0,-25 10.3,-6.75 100.98,-46.3 113,-49 3.67,-0.82 30.33,15.19 34,16 7.37,1.62 68.68,3.88 75,8 z m -124,-77 c 0,0 10.74,-5.33 12,-5 5.55,1.45 47.3,21.37 53,22 34.36,3.8 310.6,18.54 345,22 9.51,0.96 83.54,20.63 93,22 5.84,0.85 53.18,-0.97 59,0 1.75,0.29 13,12 13,12 0,0 -29.53,10.73 -33,11 -10.87,0.84 -98.13,0.86 -109,0 -9.41,-0.75 -83.62,-14.94 -93,-16 -4.87,-0.55 -44.14,0.65 -49,0 -11.6,-1.56 -103.41,-20.36 -115,-22 -11.03,-1.56 -100.05,-7.9 -111,-10 -5.91,-1.13 -50.74,-19.08 -56,-22 -1.46,-0.81 -9,-14 -9,-14 z m 18,-34 c 0,0 86.55,10.85 96,13 1.09,0.25 5,10 5,10 0,0 -86.53,-12.84 -96,-15 -0.92,-0.21 -5,-8 -5,-8 z m 293,-37 c 0,0 11.37,16.84 12,19 0.34,1.19 -1.88,11.47 -3,12 -1.47,0.7 -16,-3 -16,-3 z m -16,-58 c 0,0 13.46,16.7 14,19 0.83,3.5 -1,36 -1,36 0,0 -15.16,-29.43 -16,-33 -0.51,-2.16 3,-22 3,-22 z m 33,3 c 0.6,-1.51 14.78,-4.08 16,-3 4.65,4.13 32.33,45.89 37,50 1.07,0.95 12.22,-4.8 13,-6 1.3,-1.99 4.64,-21.05 6,-23 1.59,-2.28 22,-17 22,-17 0,0 3.89,23.6 5,26 0.86,1.86 13.72,12.97 14,15 0.41,2.98 -8.14,25.99 -8,29 0.08,1.72 10,14 10,14 0,0 -83.51,4.54 -92,1 -5,-2.08 -21.6,-43.77 -23,-49 -0.96,-3.57 -1.37,-33.56 0,-37 z m 89,-30 c 0,0 -12.03,30.09 -15,32 -2.53,1.63 -30,-3 -30,-3 0,0 1.63,-15.12 3,-16 3.7,-2.38 42,-13 42,-13 z m 57,-11 c 1.12,0.53 3.6,10.92 3,12 -1.14,2.05 -18,15 -18,15 0,0 -2.17,-21.9 -1,-24 0.79,-1.42 14.53,-3.7 16,-3 z m 1285,-14 c 5.98,0.93 48.66,25.95 52,31 4.06,6.16 15.13,64.68 16,72 0.94,7.85 1.33,71.13 2,79 0.93,10.85 12.05,97.29 14,108 0.27,1.5 7.82,11.48 8,13 1.24,10.24 6.31,92.69 6,103 -0.1,3.16 -8.32,27.32 -10,30 -2.11,3.36 -23.76,26.72 -27,29 -0.85,0.6 -9.33,-2.2 -10,-3 -2.66,-3.16 -18.56,-32.71 -22,-35 -4.3,-2.87 -46.53,-9.17 -50,-13 -3.47,-3.83 -8,-51 -8,-51 0,0 -14.19,2.68 -15,4 -3.56,5.81 -22.35,57.24 -26,63 -1.1,1.74 -19,8 -19,8 0,0 -15.44,-161.19 -18,-179 -1.44,-10.04 -20.81,-88.93 -22,-99 -1.02,-8.64 -0.75,-78.33 0,-87 0.26,-2.96 8.55,-25.41 10,-28 0.9,-1.6 11.16,-12.94 13,-13 2.25,-0.07 16.81,12.52 19,12 3.1,-0.74 20,-20.94 23,-22 4.25,-1.5 40.74,-0.54 45,-2 2.61,-0.9 16.27,-20.42 19,-20 z m -1076,47 c 0.84,3.67 -7.94,33.81 -11,36 -5.97,4.27 -62.77,20.75 -70,22 -5.62,0.97 -51.34,0.67 -57,0 -1.35,-0.16 -11,-8 -11,-8 0,0 104,-29 104,-29 0,0 -1.27,-7.01 -2,-7 -12.03,0.1 -107.97,7.93 -120,8 -4.46,0.03 -44,-7 -44,-7 0,0 20.29,-27.36 23,-30 1.47,-1.44 15.96,-9.7 18,-10 6.24,-0.92 56.85,-0.62 63,-2 3.93,-0.88 30.97,-20.1 35,-20 5.19,0.13 42.65,19.16 47,22 2.96,1.93 24.21,21.55 25,25 z m 1004,-56 c 0.32,0.52 -0.44,5.76 -1,6 -4.92,2.08 -46.8,12.69 -51,16 -4.34,3.42 -29,47 -29,47 0,0 0.9,-44.22 2,-49 0.65,-2.84 12.28,-23.95 15,-25 5.13,-1.98 49.51,-2.43 55,-2 1.14,0.09 8.4,6.03 9,7 z m -1167,-5 c 0,0 27.55,-15.46 31,-16 6.32,-1 64,1 64,1 0,0 -2.06,11.2 -3,12 -2.59,2.2 -26.6,15.89 -30,16 -6.33,0.21 -62,-13 -62,-13 z m -371,-230 c 0,0 14.94,29.49 16,33 0.3,1 -3,10 -3,10 0,0 -9.65,-5.83 -10,-7 -1.05,-3.46 -3,-36 -3,-36 z m 112,-36 c 0,0 7,27 7,27 0,0 -7.73,-5.97 -8,-7 -0.5,-1.94 1,-20 1,-20 z m -120,-14 c 0,0 9.67,13.23 10,15 0.24,1.28 -5,12 -5,12 z m 144,-18 c 0,0 9.66,13.23 10,15 0.6,3.14 -1,32 -1,32 0,0 -11.37,-27.74 -12,-31 -0.31,-1.6 3,-16 3,-16 z m 460,228 c -0.99,7.73 -21,75 -21,75 0,0 -22.53,-34.98 -26,-38 -2.97,-2.59 -32.09,-15.56 -36,-16 -10.43,-1.18 -94.8,-2.5 -105,0 -21.23,5.21 -183.58,71.6 -205,76 -16.16,3.32 -148.53,0.94 -165,0 -11.69,-0.67 -104.57,-13.45 -116,-16 -16.44,-3.67 -146.31,-39.88 -162,-46 -8.12,-3.16 -66.99,-40.82 -74,-46 -4.55,-3.36 -37.32,-34.7 -41,-39 -0.58,-0.68 -0.4,-8.2 0,-9 1.35,-2.7 13.98,-24.93 17,-25 11.02,-0.26 97.03,20.93 108,22 11.64,1.14 105.37,1.27 117,0 15.99,-1.74 142.54,-25.57 158,-30 17.46,-5 153.28,-56.91 170,-64 1.82,-0.77 13.13,-12.22 14,-14 1.02,-2.1 3.11,-20.84 4,-23 0.76,-1.85 10.41,-14.79 12,-16 4.39,-3.35 41.97,-26.72 47,-29 1.55,-0.7 15.67,-1.06 17,0 3.85,3.04 26.69,35.67 31,38 3.79,2.05 39.01,0.38 43,2 2.11,0.86 8.75,19.64 11,20 4.03,0.64 34.94,-12.43 39,-12 4.1,0.44 32.09,18.7 36,20 0.8,0.27 5.93,-5.15 6,-6 0.55,-6.28 -0.72,-56.74 0,-63 0.12,-1.06 6.97,-7.27 8,-7 1.92,0.5 14.47,11.09 15,13 1.1,3.95 -0.84,36.99 0,41 0.6,2.89 11.31,24.77 14,26 3.91,1.78 39.83,-2.91 43,0 6.43,5.89 38.91,68.53 41,77 2.13,8.64 1.13,80.17 0,89 z m -490,-252 c 0,0 9.76,5.8 10,7 0.55,2.76 -3,28 -3,28 0,0 -7.7,-11.5 -8,-13 -0.43,-2.16 1,-22 1,-22 z m 24,-34 c 0,0 7.77,5.96 8,7 0.53,2.34 -1,24 -1,24 z m 242,-18 c 0,0 46.09,12.05 51,14 2.97,1.18 25.49,14.19 27,17 1.75,3.26 2.33,33.31 2,37 -0.18,2.02 -5.16,18.16 -7,19 -3.55,1.62 -35.14,2.6 -39,2 -2.17,-0.34 -18.8,-8.81 -19,-11 -0.42,-4.69 14,-45 14,-45 0,0 -17.71,14.85 -20,16 -1.63,0.82 -18,3 -18,3 z m -50,-14 c 0,0 21.18,12.47 22,15 1.63,5.04 -0.72,47.75 0,53 0.13,0.93 7.6,4.15 8,5 0.42,0.91 -1,10 -1,10 0,0 -9.5,-2.08 -10,-3 -0.91,-1.68 -0.61,-17.69 -2,-19 -2.33,-2.19 -27.95,-8.55 -30,-11 -1.6,-1.92 -0.63,-22.58 0,-25 0.71,-2.73 13,-25 13,-25 z m 1139,9 c 3.88,-2.8 41.23,-12.77 46,-13 5.85,-0.28 52.33,6.52 58,8 3.64,0.95 31.14,13.57 34,16 4.01,3.41 30.36,36.45 33,41 2.13,3.67 13.12,35.86 14,40 0.73,3.43 5.1,33.37 2,35 -6.92,3.64 -70.85,8.17 -78,5 -4.72,-2.09 -16.32,-43.59 -19,-48 -4.68,-7.69 -48.22,-65.1 -54,-72 -0.98,-1.17 -11.5,-8.27 -13,-8 -2.4,0.44 -20,14 -20,14 0,0 -4.48,-16.93 -3,-18 z M 1330,995 c 0,0 17.61,7.03 18,9 0.55,2.77 -11,26 -11,26 0,0 -9.71,-9.54 -10,-11 -0.47,-2.37 3,-24 3,-24 z m -46,-8 c 0,0 24.64,2.73 26,5 2.7,4.52 7.59,46.75 8,52 0.19,2.5 -0.75,22.83 -2,25 -1.29,2.24 -18.71,13.81 -21,15 -0.54,0.28 -5.96,-0.39 -6,-1 -0.19,-2.72 4.25,-24.28 4,-27 -0.36,-3.82 -9.5,-33.2 -10,-37 -0.41,-3.17 1,-32 1,-32 z m -58,-8 c 1.46,-1.67 22,3 22,3 0,0 -13.45,19.45 -14,22 -0.91,4.2 -0.6,38.74 0,43 1.01,7.21 15.31,63.75 16,71 0.24,2.49 -7,24 -7,24 0,0 -7.61,-2.24 -8,-3 -1.14,-2.2 -5.86,-21.53 -6,-24 -0.46,-8.29 0.65,-74.73 0,-83 -0.16,-2.06 -7.88,-16.94 -8,-19 -0.19,-3.43 2.74,-31.41 5,-34 z m -86,-14 c 6.29,0.35 59.66,5.16 62,11 6.57,16.38 13,176 13,176 0,0 -9.86,-1.97 -10,-3 -0.75,-5.45 2.48,-49.52 2,-55 -0.13,-1.52 -7.74,-11.5 -8,-13 -1.56,-9.02 -7.8,-82.11 -10,-91 -0.32,-1.28 -12.26,-3.09 -13,-2 -1.72,2.53 -6,30 -6,30 0,0 -9.08,-27.44 -11,-30 -0.79,-1.05 -11.72,-2.32 -13,-2 -0.96,0.24 -7,7 -7,7 0,0 -8.08,-18.75 -8,-21 0.04,-1.14 7.86,-7.06 9,-7 z m -543,99 c 1.93,-2.44 20.37,-19.33 23,-21 6.73,-4.27 62.64,-34.96 70,-38 11.11,-4.59 102.34,-35.11 114,-38 11.01,-2.73 100.66,-17.71 112,-18 19.72,-0.51 183.36,-4.25 197,10 15.52,16.22 26,223 26,223 0,0 -9.83,-1.97 -10,-3 -3.33,-20.17 -20.59,-182.84 -24,-203 -0.2,-1.15 -9.84,-4.15 -11,-4 -0.71,0.1 -4.02,5.28 -4,6 0.38,13.32 6.64,119.75 8,133 0.85,8.28 14,82 14,82 0,0 -7.47,1.61 -8,1 -1.67,-1.93 -10.42,-20.52 -11,-23 -2.34,-10.09 -16.57,-91.74 -18,-102 -1.18,-8.46 -6.04,-76.69 -8,-85 -0.31,-1.32 -13,-4 -13,-4 0,0 -6,20 -6,20 0,0 -3.66,-25.49 -5,-28 -0.53,-0.99 -11,-2 -11,-2 0,0 -4.33,80.1 -4,89 0.08,2.06 7.69,16.96 8,19 0.31,2.09 -2,21 -2,21 0,0 -10.76,-15.9 -11,-18 -0.89,-7.85 1.28,-71.21 0,-79 -0.31,-1.9 -15,-12 -15,-12 0,0 -10.14,14.12 -10,16 1.59,20.91 27,208 27,208 0,0 -15.22,-5.44 -16,-7 -2.26,-4.51 -10.11,-44.32 -12,-49 -0.51,-1.26 -11,-8 -11,-8 0,0 -2.33,31.51 -2,35 0.28,2.9 7.92,25.09 8,28 0.03,1.14 -5.87,8.85 -7,9 -11.62,1.59 -105.31,8.89 -117,8 -17.51,-1.33 -155.62,-27.52 -173,-30 -3.66,-0.52 -33.39,-0.79 -37,0 -2.11,0.46 -15.84,12.09 -18,12 -3.49,-0.14 -28.53,-14.39 -32,-14 -2.96,0.33 -20.18,17.65 -22,20 -0.68,0.88 -2.54,10.02 -2,11 3,5.38 31.87,45.42 36,50 5.12,5.67 49.86,47.45 56,52 9.32,6.9 87.28,57.59 98,62 17.73,7.29 165.2,50.2 184,54 11.09,2.24 101.86,4.03 113,6 2.37,0.42 16.01,14.81 17,17 1.03,2.29 1.24,22.61 2,25 1.27,4.01 18,38 18,38 0,0 11.13,-10.38 11,-12 -0.42,-5.23 -15.41,-44.78 -16,-50 -0.17,-1.49 7.51,-11.81 9,-12 1.65,-0.22 13.26,7.51 14,9 2.98,5.97 18.57,57.28 22,63 0.88,1.47 17,2 17,2 0,0 -18.55,-53.84 -20,-60 -0.28,-1.2 2.01,-11.26 3,-12 1.04,-0.78 12.45,-1.18 13,0 3.8,8.17 27,86 27,86 0,0 -99.1,-3.42 -110,-5 -20.18,-2.93 -180.36,-34.5 -200,-40 -14.09,-3.94 -122.89,-47.5 -136,-54 -10.79,-5.35 -92.46,-56.66 -102,-64 -7.06,-5.43 -57.17,-56.26 -63,-63 -3.12,-3.61 -23.87,-35.73 -26,-40 -1.5,-3 -9.78,-28.65 -10,-32 -0.59,-9.08 0.74,-81.99 2,-91 0.57,-4.08 13.95,-34.42 16,-38 3.37,-5.87 33.8,-50.7 38,-56 z m 874,-158 c 0,0 21,5 21,5 0,0 -8.98,3.24 -10,3 -1.32,-0.32 -11,-8 -11,-8 z m -421,-11 c 11.88,-0.77 107.2,0.44 119,2 12.55,1.66 110.52,27.87 123,30 23.97,4.08 217,28.1 241,32 4.37,0.71 38.12,11.87 42,14 9.51,5.22 83.06,51.61 91,59 3.93,3.66 22.27,42.92 24,48 1.7,5.01 9.96,46.7 10,52 0.16,19.92 -5.68,179.22 -8,199 -1.7,14.46 -27.4,128.19 -32,142 -3.45,10.35 -42.19,88.77 -48,98 -2.79,4.43 -32.86,33.81 -37,37 -2.06,1.59 -21.4,9.86 -24,10 -15.68,0.87 -141.31,0.61 -157,0 -4.86,-0.19 -43.34,-6.6 -48,-8 -4.72,-1.42 -45,-20 -45,-20 0,0 29.58,-8.82 33,-9 13.48,-0.72 121.52,0.66 135,0 2.91,-0.14 25.49,-6.52 28,-8 2.07,-1.23 14.97,-15.82 16,-18 0.95,-2.01 1.26,-20.62 3,-22 4.7,-3.73 49.82,-20.98 55,-24 2.14,-1.25 14.56,-17.56 17,-18 1.97,-0.36 14.02,11.71 16,12 1.35,0.2 10.51,-6.73 11,-8 4.49,-11.55 34.77,-106.03 38,-118 2.18,-8.07 15.2,-73.68 16,-82 0.81,-8.46 2.07,-76.76 0,-85 -2.44,-9.72 -38.66,-81.52 -44,-90 -4.93,-7.82 -51.26,-65.67 -58,-72 -6.79,-6.39 -67.45,-50.28 -76,-54 -13.35,-5.81 -125.76,-36.96 -140,-40 -21.42,-4.57 -194.29,-33.13 -216,-36 -7.04,-0.93 -63.97,-0.98 -71,-2 -2.17,-0.31 -17.78,-9.17 -19,-11 -0.62,-0.93 3.88,-9.93 5,-10 z m 133,-41 c 0,0 20.38,-12.65 23,-13 5.85,-0.78 53.22,0.79 59,2 6.78,1.42 58.33,22.13 65,24 9.76,2.74 89.26,19.18 99,22 4.13,1.2 39,18 39,18 0,0 -138.73,-10.59 -154,-13 -12.03,-1.9 -106.36,-26.44 -118,-30 -1.57,-0.48 -13,-10 -13,-10 z m 220,-16 c 0,0 25.78,-17.72 29,-19 3.21,-1.27 30.55,-6.07 34,-6 6.75,0.13 60.41,6.57 67,8 6.37,1.38 56.39,16.68 62,20 2.05,1.21 6.78,21.14 9,22 4.95,1.91 47.79,0.99 53,2 4.23,0.82 36.24,13.9 40,16 2.42,1.35 21,18 21,18 0,0 -30.62,3.5 -34,3 -4.29,-0.63 -36.75,-13.16 -41,-14 -7.91,-1.57 -71.96,-9.36 -80,-10 -2.1,-0.17 -21,2 -21,2 0,0 3,14 3,14 0,0 -17.14,0.38 -19,0 -2.11,-0.43 -18.36,-6.61 -20,-8 -1.82,-1.54 -10.8,-19.09 -13,-20 -7.49,-3.09 -71.26,-15.59 -79,-18 -1.42,-0.44 -11,-10 -11,-10 z"
         id="path1" /></g></g></svg>
