<?xml version="1.0" encoding="utf-8"?>
<svg version="1.0" xmlns="http://www.w3.org/2000/svg" width="1472.000000pt" height="832.000000pt" viewBox="593.689 258.17 284.621 315.659" preserveAspectRatio="xMidYMid meet" xmlns:bx="https://boxy-svg.com">
  <defs>
    <bx:export>
      <bx:file format="svg" units="pt"/>
    </bx:export>
  </defs>
  <g transform="matrix(0.1, 0, 0, -0.1, -4.643273, 912.170288)" fill="#000000" stroke="none">
    <path d="M7265 6444 c-93 -53 -264 -149 -380 -214 -115 -65 -295 -166 -400 -225 -104 -59 -226 -128 -270 -152 -130 -71 -125 -65 -128 -163 -1 -47 -1 -150 1 -230 l2 -145 20 32 c12 21 31 35 52 41 l33 8 3 161 2 160 108 61 c172 97 636 359 772 435 69 38 179 101 245 138 67 38 128 69 138 69 9 0 76 -34 149 -77 73 -42 174 -99 223 -128 50 -28 146 -84 214 -123 69 -40 127 -72 130 -72 3 0 15 19 25 43 11 23 21 44 23 47 4 6 -109 74 -478 285 -176 101 -262 145 -283 145 -20 0 -89 -33 -201 -96z"/>
    <path d="M7400 6164 c-82 -69 -235 -338 -290 -510 -49 -152 -60 -250 -60 -521 l0 -241 -115 -104 -115 -103 0 -307 c0 -293 1 -308 19 -318 29 -15 47 -3 82 53 17 29 57 84 88 124 l56 72 152 1 151 0 4 -215 c2 -125 7 -218 13 -223 22 -21 52 -22 76 -3 24 19 24 22 27 230 l3 211 154 0 153 0 64 -77 c35 -43 77 -100 92 -126 25 -43 31 -48 59 -45 l32 3 3 312 2 311 -62 52 c-35 29 -89 77 -120 106 l-58 53 0 253 c0 364 -22 480 -130 703 -64 132 -184 304 -224 323 -22 10 -29 8 -56 -14z m96 -204 c24 -38 64 -110 89 -162 l46 -93 -95 -3 c-52 -1 -140 -1 -196 0 l-101 3 42 85 c51 107 147 252 161 244 5 -4 30 -37 54 -74z m151 -379 c45 -2 48 -43 48 -621 l0 -535 -267 -3 -268 -2 0 464 c0 530 13 689 57 698 13 2 334 1 430 -1z m240 -903 l42 -43 6 -152 c5 -98 3 -153 -3 -153 -5 0 -35 28 -66 63 l-56 62 0 143 c0 162 -1 161 77 80z m-837 -92 l0 -144 -60 -60 -60 -60 0 156 0 156 52 48 c29 26 56 48 60 48 4 0 8 -65 8 -144z"/>
    <path d="M7323 5491 c-51 -37 -67 -75 -61 -149 5 -70 32 -113 88 -142 75 -38 149 -22 208 45 38 42 46 71 39 132 -5 51 -29 88 -77 121 -51 34 -144 31 -197 -7z m157 -91 c11 -11 20 -31 20 -45 0 -31 -41 -75 -69 -75 -32 0 -73 42 -73 75 0 57 80 87 122 45z"/>
    <path d="M8398 6166 c-56 -20 -85 -42 -118 -88 -39 -53 -53 -109 -47 -179 5 -57 33 -125 61 -148 9 -8 16 -20 16 -29 0 -8 -29 -71 -65 -140 -65 -125 -75 -158 -53 -180 18 -18 63 -15 80 6 8 9 43 71 78 137 l62 120 72 1 c50 1 85 7 120 22 26 12 52 19 57 16 5 -3 9 -122 9 -266 l0 -260 23 6 c12 3 37 6 55 6 l32 0 0 285 0 285 -29 26 c-26 23 -28 29 -20 57 32 113 -19 246 -117 303 -55 33 -158 42 -216 20z m165 -112 c35 -18 64 -65 72 -116 9 -53 -26 -123 -75 -150 -66 -36 -153 -13 -203 54 -24 32 -26 112 -4 155 37 72 132 97 210 57z"/>
    <path d="M6642 5574 c-12 -8 -29 -28 -37 -45 -12 -22 -45 -44 -145 -94 l-130 -65 17 -35 c9 -19 20 -35 24 -35 4 0 62 27 130 60 99 48 134 60 172 60 58 0 97 32 97 79 0 43 -9 60 -41 76 -36 19 -59 19 -87 -1z"/>
    <path d="M6171 5314 c-28 -35 -26 -69 4 -99 27 -28 46 -31 78 -13 31 16 46 39 47 71 0 64 -89 92 -129 41z"/>
    <path d="M6090 4772 l0 -433 -39 -36 c-72 -64 -88 -154 -41 -230 38 -63 147 -93 214 -58 15 8 34 15 41 15 8 0 87 -41 177 -91 201 -113 710 -404 758 -434 19 -12 79 -46 133 -74 77 -42 103 -52 125 -46 15 3 128 64 252 135 124 70 344 194 490 275 393 219 543 305 563 322 16 15 17 47 17 400 l0 383 -41 0 c-25 0 -55 8 -75 21 l-33 20 -98 -37 c-80 -30 -110 -36 -165 -35 -56 1 -71 -2 -88 -19 -27 -27 -27 -89 0 -118 39 -42 113 -38 136 7 8 16 39 32 110 57 55 20 109 38 122 41 l22 5 0 -325 0 -326 -27 -19 c-16 -11 -212 -122 -438 -247 -225 -125 -484 -270 -574 -322 -90 -53 -175 -95 -187 -95 -13 0 -119 55 -236 123 -300 174 -851 488 -860 491 -4 2 -12 27 -18 55 -12 68 -32 98 -86 129 l-44 26 -2 401 -3 401 -29 7 c-16 5 -40 21 -52 36 l-23 28 -1 -433z m112 -559 c41 -37 7 -113 -50 -113 -60 0 -88 56 -52 103 25 32 73 37 102 10z"/>
    <path d="M6309 5167 c-19 -11 -36 -22 -38 -24 -9 -7 21 -55 97 -155 55 -74 81 -118 85 -144 8 -47 38 -74 83 -74 47 0 74 29 74 79 0 33 -6 44 -31 63 -45 33 -79 71 -162 180 l-73 96 -35 -21z"/>
    <path d="M8009 5111 c-17 -18 -29 -40 -29 -56 0 -32 50 -85 80 -85 12 0 36 7 53 15 25 11 84 15 262 17 l230 3 3 41 3 41 -98 6 c-54 4 -158 7 -230 7 -115 0 -137 3 -165 20 -45 28 -75 25 -109 -9z"/>
    <path d="M8713 5118 c-28 -13 -46 -58 -37 -92 14 -57 86 -74 129 -31 40 40 30 96 -22 123 -26 14 -41 14 -70 0z"/>
  </g>
</svg>